<svg width="24" height="24" viewBox="0 0 24 24" fill="none" xmlns="http://www.w3.org/2000/svg">
<path fill-rule="evenodd" clip-rule="evenodd" d="M3.6 12C3.6 7.36081 7.36081 3.6 12 3.6C16.6392 3.6 20.4 7.36081 20.4 12C20.4 16.6392 16.6392 20.4 12 20.4C7.36081 20.4 3.6 16.6392 3.6 12ZM12 2C6.47715 2 2 6.47715 2 12C2 17.5228 6.47715 22 12 22C17.5228 22 22 17.5228 22 12C22 6.47715 17.5228 2 12 2ZM13.2992 7.8C13.2992 8.51797 12.7172 9.1 11.9992 9.1C11.2812 9.1 10.6992 8.51797 10.6992 7.8C10.6992 7.08203 11.2812 6.5 11.9992 6.5C12.7172 6.5 13.2992 7.08203 13.2992 7.8ZM8.19922 10.5002C8.19922 10.0584 8.55739 9.7002 8.99922 9.7002H14.9992C15.441 9.7002 15.7992 10.0584 15.7992 10.5002C15.7992 10.942 15.441 11.3002 14.9992 11.3002H13.0121L14.2775 16.6147C14.3798 17.0445 14.1143 17.4759 13.6845 17.5782C13.2547 17.6806 12.8233 17.4151 12.721 16.9853L11.9992 13.954L11.2775 16.9853C11.1751 17.4151 10.7437 17.6806 10.3139 17.5782C9.8841 17.4759 9.61864 17.0445 9.72097 16.6147L10.9864 11.3002H8.99922C8.55739 11.3002 8.19922 10.942 8.19922 10.5002Z" fill="#33363D"/>
</svg>
