<svg width="24" height="24" viewBox="0 0 24 24" fill="none" xmlns="http://www.w3.org/2000/svg">
<path fill-rule="evenodd" clip-rule="evenodd" d="M3 4.8C3 3.80589 3.80589 3 4.8 3H19.2C20.1941 3 21 3.80589 21 4.8V19.2C21 20.1941 20.1941 21 19.2 21H4.8C3.80589 21 3 20.1941 3 19.2V4.8ZM4.8 4.6C4.68954 4.6 4.6 4.68954 4.6 4.8V19.2C4.6 19.3105 4.68954 19.4 4.8 19.4H19.2C19.3105 19.4 19.4 19.3105 19.4 19.2V4.8C19.4 4.68954 19.3105 4.6 19.2 4.6H4.8ZM7.99922 11.2002C8.44105 11.2002 8.79922 11.5584 8.79922 12.0002V17.0002C8.79922 17.442 8.44105 17.8002 7.99922 17.8002C7.55739 17.8002 7.19922 17.442 7.19922 17.0002V12.0002C7.19922 11.5584 7.55739 11.2002 7.99922 11.2002ZM16.7992 7.0002C16.7992 6.55837 16.441 6.2002 15.9992 6.2002C15.5574 6.2002 15.1992 6.55837 15.1992 7.0002V17.0002C15.1992 17.442 15.5574 17.8002 15.9992 17.8002C16.441 17.8002 16.7992 17.442 16.7992 17.0002V7.0002ZM11.9992 13.2002C12.441 13.2002 12.7992 13.5584 12.7992 14.0002V17.0002C12.7992 17.442 12.441 17.8002 11.9992 17.8002C11.5574 17.8002 11.1992 17.442 11.1992 17.0002V14.0002C11.1992 13.5584 11.5574 13.2002 11.9992 13.2002ZM12.7992 10.0002C12.7992 9.55837 12.441 9.2002 11.9992 9.2002C11.5574 9.2002 11.1992 9.55837 11.1992 10.0002V11.0002C11.1992 11.442 11.5574 11.8002 11.9992 11.8002C12.441 11.8002 12.7992 11.442 12.7992 11.0002V10.0002Z" fill="#33363D"/>
</svg>
