<svg width="24" height="24" viewBox="0 0 24 24" fill="none" xmlns="http://www.w3.org/2000/svg">
<path fill-rule="evenodd" clip-rule="evenodd" d="M12 2C6.47715 2 2 6.47715 2 12C2 13.509 2.33425 14.94 2.93275 16.2229L2.06334 20.3992C1.98993 20.7518 2.30214 21.0641 2.65475 20.9907L6.31583 20.2285C7.92987 21.3456 9.88851 22 12 22C17.5228 22 22 17.5228 22 12C22 6.47715 17.5228 2 12 2Z" fill="#256EF4"/>
<path d="M10.991 14.1879C10.9171 14.1879 10.8572 14.128 10.8572 14.0541C10.8606 13.4329 10.919 12.9387 11.0322 12.5715C11.1489 12.2043 11.3136 11.9092 11.5264 11.6861C11.7392 11.4596 11.9983 11.252 12.3037 11.0632C12.5131 10.9328 12.7001 10.7904 12.8648 10.6359C13.033 10.4781 13.1651 10.3031 13.2612 10.1109C13.3573 9.91526 13.4053 9.69733 13.4053 9.4571C13.4053 9.18599 13.3418 8.95091 13.2149 8.75186C13.0879 8.55281 12.9163 8.39838 12.7001 8.28856C12.4873 8.17874 12.2488 8.12383 11.9845 8.12383C11.7409 8.12383 11.5092 8.17703 11.2896 8.28342C11.0734 8.38637 10.8932 8.54423 10.7491 8.75701C10.6368 8.92402 10.5639 9.12706 10.5303 9.36615C10.5155 9.47144 10.429 9.55491 10.3226 9.55491H8.88502C8.7725 9.55491 8.68158 9.46199 8.68999 9.34979C8.73214 8.78761 8.88657 8.31032 9.15328 7.91792C9.45528 7.47865 9.85338 7.14919 10.3476 6.92955C10.8452 6.70992 11.3943 6.6001 11.9948 6.6001C12.6503 6.6001 13.2269 6.71506 13.7245 6.945C14.2255 7.17493 14.6151 7.50267 14.893 7.92822C15.1744 8.35034 15.3151 8.85138 15.3151 9.43137C15.3151 9.8226 15.2517 10.1726 15.1247 10.4815C15.0011 10.7904 14.8244 11.0649 14.5945 11.3052C14.3645 11.5454 14.0917 11.7599 13.776 11.9486C13.498 12.1202 13.2698 12.2987 13.0913 12.484C12.9163 12.6693 12.7859 12.8872 12.7001 13.1378C12.6177 13.3848 12.5748 13.6903 12.5714 14.0541C12.5714 14.128 12.5115 14.1879 12.4376 14.1879H10.991ZM11.7529 17.4001C11.444 17.4001 11.1781 17.2903 10.955 17.0706C10.7319 16.851 10.6204 16.5833 10.6204 16.2676C10.6204 15.9587 10.7319 15.6945 10.955 15.4748C11.1781 15.2552 11.444 15.1454 11.7529 15.1454C12.0583 15.1454 12.3226 15.2552 12.5457 15.4748C12.7722 15.6945 12.8854 15.9587 12.8854 16.2676C12.8854 16.4769 12.8322 16.6674 12.7258 16.839C12.6229 17.0106 12.4856 17.1479 12.314 17.2508C12.1458 17.3503 11.9588 17.4001 11.7529 17.4001Z" fill="white"/>
</svg>
