<svg width="24" height="24" viewBox="0 0 24 24" fill="none" xmlns="http://www.w3.org/2000/svg">
<path fill-rule="evenodd" clip-rule="evenodd" d="M11.8509 4.92396C14.0162 2.75874 17.5267 2.75874 19.6919 4.92397C21.8571 7.0892 21.8571 10.5997 19.6919 12.7649L11.9911 20.4657C11.6786 20.7782 11.1721 20.7782 10.8597 20.4657C10.5473 20.1533 10.5473 19.6468 10.8597 19.3344L18.5605 11.6336C20.1009 10.0932 20.1009 7.59573 18.5605 6.05534C17.0201 4.51496 14.5227 4.51494 12.9823 6.05534L4.92108 14.1165C4.92107 14.1165 4.92108 14.1165 4.92108 14.1165C3.9575 15.0801 3.95749 16.6424 4.92108 17.606C5.88466 18.5696 7.44692 18.5696 8.41051 17.606L15.643 10.3735C15.9898 10.0267 15.9898 9.46445 15.643 9.11766C15.2962 8.77089 14.7339 8.77089 14.3871 9.11766L7.51506 15.9898C7.20264 16.3022 6.69611 16.3022 6.38369 15.9898C6.07127 15.6774 6.07127 15.1708 6.38369 14.8584L13.2558 7.98632C13.2557 7.98632 13.2558 7.98631 13.2558 7.98632C14.2274 7.01468 15.8028 7.01468 16.7744 7.98632C17.746 8.95794 17.746 10.5332 16.7744 11.5049L9.54188 18.7374C7.95346 20.3258 5.37812 20.3258 3.78969 18.7374C2.20129 17.1489 2.20129 14.5736 3.78969 12.9852L11.8509 4.92396Z" fill="#33363D"/>
</svg>
