<svg width="24" height="24" viewBox="0 0 24 24" fill="none" xmlns="http://www.w3.org/2000/svg">
<path fill-rule="evenodd" clip-rule="evenodd" d="M18.0017 2.8C18.0017 2.35817 17.6435 2 17.2017 2H5.80391C4.80979 2 4.00391 2.80589 4.00391 3.8V19.2002C4.00391 19.642 4.36208 20.0002 4.80391 20.0002C5.24573 20.0002 5.60391 19.642 5.60391 19.2002V3.8C5.60391 3.68954 5.69345 3.6 5.80391 3.6H17.2017C17.6435 3.6 18.0017 3.24183 18.0017 2.8ZM8.38964 21.9024C8.27029 21.9676 8.13867 22.0001 8.00715 22.0002C7.86497 22.0006 7.72285 21.9632 7.59643 21.8882C7.3536 21.7441 7.20472 21.4826 7.20469 21.2003L7.20312 6.00028C7.2031 5.78809 7.28738 5.58459 7.43741 5.43454C7.58744 5.28449 7.79094 5.2002 8.00312 5.2002H8.00482H19.2016H19.2033C19.6451 5.2002 20.0033 5.55837 20.0033 6.0002V21.2002C20.0033 21.4804 19.8566 21.7402 19.6167 21.8851C19.49 21.9616 19.3469 22.0001 19.2036 22.0002C19.0752 22.0005 18.9464 21.97 18.829 21.9081L13.5093 19.1083L8.38964 21.9024ZM18.4016 19.8742L13.8759 17.4923C13.7589 17.4307 13.6306 17.4001 13.5024 17.4002C13.3702 17.4001 13.2379 17.4327 13.1183 17.498L8.80625 19.8513L8.80491 6.8002H18.4016V19.8742Z" fill="#33363D"/>
</svg>
