<svg width="24" height="24" viewBox="0 0 24 24" fill="none" xmlns="http://www.w3.org/2000/svg">
<path fill-rule="evenodd" clip-rule="evenodd" d="M7.8 2C8.24183 2 8.6 2.35817 8.6 2.8V5.00005L15.3984 5.00013V2.8C15.3984 2.35817 15.7566 2 16.1984 2C16.6403 2 16.9984 2.35817 16.9984 2.8V5.00015L19.1992 5.00017C20.1933 5.00018 20.9992 5.80607 20.9992 6.80017V19.2002C20.9992 20.1943 20.1933 21.0002 19.1992 21.0002H4.8C3.80589 21.0002 3 20.1943 3 19.2002V6.8C3 5.80588 3.8059 4.99999 4.80002 5L7 5.00003V2.8C7 2.35817 7.35817 2 7.8 2ZM4.8 6.6C4.68954 6.6 4.6 6.68954 4.6 6.8V9.2002H19.3992V6.80017C19.3992 6.68972 19.3097 6.60017 19.1992 6.60017L4.8 6.6ZM4.6 19.2002V10.8002H19.3992V19.2002C19.3992 19.3106 19.3097 19.4002 19.1992 19.4002H4.8C4.68954 19.4002 4.6 19.3106 4.6 19.2002ZM7.60156 14C7.04928 14 6.60156 14.4477 6.60156 15C6.60156 15.5523 7.04928 16 7.60156 16C8.15385 16 8.60156 15.5523 8.60156 15C8.60156 14.4477 8.15385 14 7.60156 14ZM12 14C11.4477 14 11 14.4477 11 15C11 15.5523 11.4477 16 12 16C12.5523 16 13 15.5523 13 15C13 14.4477 12.5523 14 12 14ZM15.4023 15C15.4023 14.4477 15.8501 14 16.4023 14C16.9546 14 17.4023 14.4477 17.4023 15C17.4023 15.5523 16.9546 16 16.4023 16C15.8501 16 15.4023 15.5523 15.4023 15Z" fill="#33363D"/>
</svg>
