<svg width="24" height="24" viewBox="0 0 24 24" fill="none" xmlns="http://www.w3.org/2000/svg">
<path fill-rule="evenodd" clip-rule="evenodd" d="M4.63439 3.05873C5.22162 2.49958 6.00409 2.19132 6.81548 2.20014C7.6343 2.20903 8.41666 2.54011 8.99315 3.12167C9.00926 3.13793 9.0207 3.15084 9.02369 3.1542C9.0299 3.16119 9.03518 3.16738 9.03798 3.17069L9.05174 3.18731L9.07168 3.21219C9.08502 3.22902 9.10261 3.25143 9.1231 3.27767C9.16441 3.33055 9.22146 3.40399 9.28846 3.49048C9.42267 3.6637 9.59907 3.8921 9.77439 4.11935C9.94979 4.3467 10.1244 4.57328 10.2551 4.74299L10.4492 4.99492C10.9845 5.57371 11.282 6.3338 11.281 7.1233C11.2801 7.91874 10.9763 8.68362 10.432 9.26274L9.56707 10.29C9.99679 11.1909 10.5771 12.0133 11.2841 12.7212C11.9907 13.4287 12.8119 14.0098 13.7116 14.4405L14.7382 13.5727C15.3172 13.027 16.0827 12.7222 16.8789 12.7209C17.6691 12.7196 18.4298 13.0173 19.009 13.5532L19.2612 13.7473C19.4312 13.8782 19.6581 14.053 19.8857 14.2286C20.1133 14.404 20.342 14.5805 20.5153 14.7148C20.6019 14.7818 20.6754 14.8388 20.7282 14.8801L20.7936 14.9314L20.8183 14.9511L20.8347 14.9647C20.838 14.9675 20.8438 14.9725 20.8508 14.9787C20.8535 14.981 20.8689 14.9945 20.888 15.0137C21.4719 15.6 21.7995 16.3943 21.7999 17.2211C21.8003 18.0387 21.4807 18.8235 20.9103 19.4081L20.2415 20.1782C20.2252 20.1969 20.2082 20.2148 20.1903 20.2319C18.3671 21.9749 15.9353 22.1097 13.5921 21.387C11.2558 20.6665 8.88065 19.0681 6.92352 17.1153C4.96625 15.1623 3.36129 12.7891 2.62875 10.454C1.89467 8.11405 2.00906 5.68067 3.72809 3.85285C3.74633 3.83345 3.76554 3.81497 3.78562 3.79749L4.63439 3.05873ZM18.0023 14.7974C17.9801 14.7803 17.9588 14.7621 17.9385 14.7427C17.6536 14.4713 17.275 14.3203 16.8816 14.3209C16.4881 14.3216 16.11 14.4739 15.826 14.7462C15.814 14.7577 15.8016 14.7689 15.7888 14.7796L14.3614 15.9863C14.1329 16.1794 13.8158 16.2289 13.5394 16.1147C12.2722 15.5911 11.121 14.822 10.1521 13.8519C9.18313 12.8818 8.41552 11.7296 7.89338 10.4618C7.77981 10.186 7.82906 9.86996 8.02116 9.64184L9.22324 8.21425C9.2341 8.20135 9.24536 8.1888 9.25701 8.17662C9.52873 7.89249 9.68059 7.51461 9.68105 7.12143C9.68151 6.72825 9.53053 6.35002 9.25948 6.06525C9.24023 6.04503 9.22206 6.02382 9.20503 6.00169L8.98765 5.71944C8.85703 5.54989 8.68267 5.32363 8.50758 5.09669C8.33242 4.86964 8.15683 4.6423 8.02367 4.47043C7.95699 4.38437 7.90151 4.31294 7.8622 4.26262L7.8302 4.22186C7.55269 3.95539 7.18371 3.80423 6.7981 3.80004C6.40003 3.79572 6.01626 3.94837 5.72989 4.22497C5.71994 4.23458 5.70975 4.24392 5.69933 4.253L4.86755 4.97697C3.70946 6.23109 3.52684 7.97153 4.15538 9.97507C4.79015 11.9984 6.22426 14.1573 8.05365 15.9827C9.88319 17.8082 12.0423 19.2347 14.0637 19.8581C16.0645 20.4752 17.8036 20.28 19.0588 19.0998L19.7186 18.3401C19.7304 18.3266 19.7426 18.3134 19.7553 18.3007C20.0402 18.014 20.2001 17.6261 20.1999 17.2219C20.1997 16.8308 20.0498 16.4548 19.7823 16.1716L19.7438 16.1414C19.6934 16.1021 19.6219 16.0466 19.5358 15.9799C19.3637 15.8466 19.1361 15.6709 18.9087 15.4956C18.6814 15.3203 18.4548 15.1458 18.285 15.015L18.0023 14.7974ZM7.85723 4.24847C7.8571 4.24834 7.85736 4.2486 7.85723 4.24847V4.24847ZM7.86833 4.25944C7.86443 4.25566 7.86072 4.25198 7.85723 4.24847L7.86833 4.25944Z" fill="#33363D"/>
</svg>
