<svg width="24" height="24" viewBox="0 0 24 24" fill="none" xmlns="http://www.w3.org/2000/svg">
<path fill-rule="evenodd" clip-rule="evenodd" d="M14.9984 6.80006C14.9984 8.01509 15.9834 9.00004 17.1984 9.00001C18.4135 8.99998 19.3984 8.01498 19.3984 6.79995C19.3984 5.58492 18.4135 4.59997 17.1984 4.6C15.9834 4.60003 14.9984 5.58503 14.9984 6.80006ZM13.5148 5.86329C13.932 4.21762 15.423 3.00005 17.1984 3C19.2971 2.99995 20.9984 4.70123 20.9984 6.79991C20.9984 8.89859 19.2971 10.6 17.1984 10.6C16.5355 10.6 15.9123 10.4303 15.3698 10.1319L10.1313 15.3703C10.3287 15.729 10.4699 16.123 10.543 16.5404H13.4555C13.7677 14.7561 15.3247 13.3999 17.1984 13.3999C19.2971 13.3999 20.9985 15.1012 20.9985 17.1999C20.9986 19.2986 19.2973 20.9999 17.1986 20.9999C15.4246 20.9999 13.9344 19.7842 13.5158 18.1404H10.4827C10.0642 19.7842 8.57407 20.9999 6.8 21C4.70134 21 3 19.2988 3 17.2001C3 15.1014 4.70133 13.4001 6.8 13.4001C7.65522 13.4001 8.44445 13.6826 9.07947 14.1594L14.1585 9.08051C13.8074 8.61328 13.5616 8.06248 13.4561 7.46329H10.5423C10.2286 9.24577 8.67244 10.6 6.8 10.6001C4.70134 10.6001 3 8.89885 3 6.80019C3 4.70153 4.70133 3.00023 6.8 3.00021C8.57538 3.00018 10.0664 4.21767 10.4836 5.86329H13.5148ZM8.89828 7.46329H6.99922C6.55739 7.46329 6.19922 7.10512 6.19922 6.66329C6.19922 6.22146 6.55739 5.86329 6.99922 5.86329H8.79113C8.43927 5.11682 7.67998 4.60019 6.8 4.60021C5.58496 4.60022 4.6 5.58519 4.6 6.80017C4.6 8.01513 5.58495 9.00008 6.8 9.00006C7.78392 9.00005 8.61696 8.35417 8.89828 7.46329ZM8.99192 17.0102C8.94624 17.1109 8.9208 17.2227 8.9208 17.3404C8.9208 17.4312 8.93592 17.5184 8.96377 17.5998C8.77577 18.6239 7.87853 19.4 6.8 19.4C5.58495 19.4 4.6 18.415 4.6 17.2001C4.6 15.9851 5.58496 15.0001 6.8 15.0001C7.95109 15.0001 8.89568 15.8841 8.99192 17.0102ZM15.2092 18.1404C15.5618 18.885 16.3201 19.3999 17.1986 19.3999C18.4136 19.3999 19.3986 18.4149 19.3985 17.1999C19.3985 15.9849 18.4135 14.9999 17.1985 14.9999C16.2132 14.9999 15.3792 15.6476 15.0991 16.5404H16.9992C17.441 16.5404 17.7992 16.8986 17.7992 17.3404C17.7992 17.7823 17.441 18.1404 16.9992 18.1404H15.2092Z" fill="#33363D"/>
</svg>
