<svg width="24" height="24" viewBox="0 0 24 24" fill="none" xmlns="http://www.w3.org/2000/svg">
<path fill-rule="evenodd" clip-rule="evenodd" d="M3 4.8C3 3.80588 3.8059 2.99999 4.80002 3L19.1992 3.00017C20.1933 3.00018 20.9992 3.80607 20.9992 4.80017V19.2002C20.9992 20.1943 20.1933 21.0002 19.1992 21.0002H4.8C3.80589 21.0002 3 20.1943 3 19.2002V4.8ZM4.8 4.6C4.68954 4.6 4.6 4.68954 4.6 4.8V19.2002C4.6 19.3106 4.68954 19.4002 4.8 19.4002H19.1992C19.3097 19.4002 19.3992 19.3106 19.3992 19.2002V4.80017C19.3992 4.68972 19.3097 4.60017 19.1992 4.60017L4.8 4.6ZM11.9992 8.20059C11.3365 8.20059 10.7992 8.73784 10.7992 9.40059C10.7992 10.0633 11.3365 10.6006 11.9992 10.6006C12.662 10.6006 13.1992 10.0633 13.1992 9.40059C13.1992 8.73784 12.662 8.20059 11.9992 8.20059ZM9.19922 9.40059C9.19922 7.85419 10.4528 6.60059 11.9992 6.60059C13.5456 6.60059 14.7992 7.85419 14.7992 9.40059C14.7992 10.947 13.5456 12.2006 11.9992 12.2006C10.4528 12.2006 9.19922 10.947 9.19922 9.40059ZM9.8601 15.4173C10.4478 15.0255 11.2035 14.8002 11.9994 14.8002C12.7953 14.8002 13.5511 15.0255 14.1387 15.4173C14.725 15.8082 15.0902 16.3263 15.2231 16.8601C15.3298 17.2889 15.7639 17.5499 16.1927 17.4432C16.6214 17.3364 16.8825 16.9023 16.7757 16.4736C16.5339 15.5023 15.8979 14.6672 15.0262 14.086C14.1559 13.5058 13.0865 13.2002 11.9994 13.2002C10.9123 13.2002 9.8429 13.5058 8.97258 14.086C8.10089 14.6672 7.46492 15.5023 7.2231 16.4736C7.11637 16.9023 7.3774 17.3364 7.80614 17.4432C8.23488 17.5499 8.66897 17.2889 8.77571 16.8601C8.90861 16.3263 9.27381 15.8082 9.8601 15.4173Z" fill="#33363D"/>
</svg>
