<svg width="24" height="24" viewBox="0 0 24 24" fill="none" xmlns="http://www.w3.org/2000/svg">
<path d="M13.7992 13.8C13.7992 14.5061 13.3926 15.1173 12.8008 15.4121V17.2002C12.8008 17.642 12.4426 18.0002 12.0008 18.0002C11.559 18.0002 11.2008 17.642 11.2008 17.2002V15.4137C10.6072 15.1194 10.1992 14.5074 10.1992 13.8C10.1992 12.8059 11.0051 12 11.9992 12C12.9933 12 13.7992 12.8059 13.7992 13.8Z" fill="#33363D"/>
<path fill-rule="evenodd" clip-rule="evenodd" d="M17.7842 8C17.7386 6.91208 17.5644 5.62009 16.9485 4.51149C16.5501 3.79432 15.9673 3.15316 15.1323 2.69768C14.3025 2.24505 13.2683 2 11.9992 2C10.7302 2 9.69597 2.24505 8.86613 2.69768C8.03109 3.15316 7.44832 3.79432 7.04989 4.51149C6.434 5.62009 6.25988 6.91208 6.21425 8H4.8C3.80589 8 3 8.80589 3 9.8V19.2C3 20.1941 3.80589 21 4.8 21H19.1992C20.1933 21 20.9992 20.1941 20.9992 19.2V9.8C20.9992 8.80589 20.1933 8 19.1992 8H17.7842ZM7.81646 8C7.86202 7.04276 8.01352 6.07155 8.44854 5.28851C8.71678 4.80568 9.09234 4.39684 9.6323 4.10232C10.1775 3.80495 10.9349 3.6 11.9992 3.6C13.0635 3.6 13.821 3.80495 14.3661 4.10232C14.9061 4.39684 15.2817 4.80568 15.5499 5.28851C15.9849 6.07155 16.1364 7.04276 16.182 8H7.81646ZM7.0001 9.6C6.99981 9.6 7.0004 9.6 7.0001 9.6C6.99981 9.6 6.99863 9.6 6.99834 9.6H4.8C4.68954 9.6 4.6 9.68954 4.6 9.8V19.2C4.6 19.3105 4.68954 19.4 4.8 19.4H19.1992C19.3097 19.4 19.3992 19.3105 19.3992 19.2V9.8C19.3992 9.68954 19.3097 9.6 19.1992 9.6H17.0001C16.9998 9.6 17.0004 9.6 17.0001 9.6C16.9998 9.6 16.9986 9.6 16.9983 9.6H7.0001Z" fill="#33363D"/>
</svg>
