<svg width="24" height="24" viewBox="0 0 24 24" fill="none" xmlns="http://www.w3.org/2000/svg">
<path fill-rule="evenodd" clip-rule="evenodd" d="M12.6289 2.00682C12.4773 1.81327 12.2451 1.7002 11.9992 1.7002C11.7533 1.7002 11.5211 1.81327 11.3694 2.00682C10.2417 3.44627 8.51088 4.37886 6.54875 4.37886C5.80781 4.37886 5.46878 4.24595 4.69515 3.94074C4.44882 3.84356 4.17037 3.87457 3.95145 4.02356C3.73254 4.17255 3.60153 4.42021 3.60156 4.68502L3.60234 11.1205C3.60237 15.5886 5.64959 18.3284 7.71145 19.9287C8.73205 20.7208 9.74938 21.23 10.5112 21.5418C10.893 21.698 11.2135 21.8059 11.442 21.8754C11.5564 21.9103 11.648 21.9356 11.7131 21.9527C11.7456 21.9612 11.7716 21.9677 11.7904 21.9723L11.8134 21.9778L11.8207 21.9795L11.8234 21.9801L11.8245 21.9803C11.94 22.0064 12.0616 22.0065 12.1772 21.9807L12.1783 21.9804L12.1809 21.9798L12.1883 21.9781L12.2113 21.9727C12.2302 21.9681 12.2561 21.9617 12.2887 21.9532C12.3538 21.9362 12.4455 21.911 12.5599 21.8764C12.7886 21.8072 13.1092 21.6999 13.4913 21.5442C14.2534 21.2336 15.2713 20.7257 16.2924 19.9344C18.3555 18.3355 20.4031 15.5954 20.4031 11.1204V4.68492C20.4031 4.42028 20.2722 4.17276 20.0535 4.02376C19.8348 3.87477 19.5566 3.84357 19.3103 3.94044C18.5334 4.24601 18.1953 4.37886 17.4544 4.37886H17.4496C15.4875 4.37886 13.7566 3.44627 12.6289 2.00682ZM12.0016 21.2002C11.8253 21.9805 11.8249 21.9804 11.8245 21.9803L12.0016 21.2002ZM12.1772 21.9807C12.1768 21.9808 12.1763 21.9809 12.0016 21.2002L12.1772 21.9807ZM12.0965 20.345C12.0621 20.3554 12.0306 20.3646 12.0023 20.3728C11.9739 20.3646 11.9425 20.3553 11.908 20.3448C11.721 20.2879 11.4478 20.1963 11.1172 20.061C10.4541 19.7896 9.57166 19.3471 8.69246 18.6647C6.95472 17.316 5.20234 15.0158 5.20234 11.1203L5.2017 5.81491C5.58726 5.91751 6.00422 5.97886 6.54875 5.97886C8.69104 5.97886 10.6078 5.09918 11.9992 3.70515C13.3905 5.09918 15.3073 5.97886 17.4496 5.97886H17.4544C17.9998 5.97886 18.417 5.91729 18.8031 5.81443V11.1204C18.8031 15.0233 17.0499 17.3231 15.3123 18.6697C14.433 19.3511 13.5505 19.7923 12.8874 20.0625C12.5568 20.1973 12.2835 20.2884 12.0965 20.345ZM16.5534 10.5771C16.8721 10.271 16.8822 9.76459 16.5761 9.44597C16.27 9.12735 15.7636 9.11719 15.445 9.42328L10.8226 13.8639L8.58122 11.4873C8.27808 11.1659 7.77177 11.1511 7.45034 11.4542C7.12891 11.7573 7.11408 12.2636 7.41722 12.5851L10.2125 15.5491C10.359 15.7044 10.5614 15.7947 10.7748 15.8C10.9882 15.8052 11.1948 15.725 11.3488 15.5771L16.5534 10.5771Z" fill="#33363D"/>
</svg>
