<svg width="24" height="24" viewBox="0 0 24 24" fill="none" xmlns="http://www.w3.org/2000/svg">
<path d="M11.293 3.30718C11.6835 2.91665 12.3166 2.91665 12.7072 3.30718L15.5356 6.1356C15.9261 6.52613 15.9261 7.15929 15.5356 7.54982L12.7072 10.3782C12.3166 10.7688 11.6835 10.7688 11.293 10.3782L8.46452 7.54982C8.074 7.15929 8.074 6.52613 8.46452 6.1356L11.293 3.30718Z" fill="#33363D"/>
<path d="M6.29295 8.50688C6.68348 8.11636 7.31664 8.11636 7.70717 8.50688L10.5356 11.3353C10.9261 11.7258 10.9261 12.359 10.5356 12.7495L7.70716 15.578C7.31664 15.9685 6.68348 15.9685 6.29295 15.578L3.46452 12.7495C3.074 12.359 3.074 11.7258 3.46452 11.3353L6.29295 8.50688Z" fill="#33363D"/>
<path d="M16.293 8.50688C16.6835 8.11636 17.3166 8.11636 17.7072 8.50688L20.5356 11.3353C20.9261 11.7258 20.9261 12.359 20.5356 12.7495L17.7072 15.578C17.3166 15.9685 16.6835 15.9685 16.293 15.578L13.4645 12.7495C13.074 12.359 13.074 11.7258 13.4645 11.3353L16.293 8.50688Z" fill="#33363D"/>
<path d="M11.293 13.6071C11.6835 13.2166 12.3166 13.2166 12.7072 13.6071L15.5356 16.4355C15.9261 16.826 15.9261 17.4592 15.5356 17.8497L12.7072 20.6781C12.3166 21.0687 11.6835 21.0687 11.293 20.6781L8.46452 17.8497C8.074 17.4592 8.074 16.826 8.46452 16.4355L11.293 13.6071Z" fill="#33363D"/>
</svg>
