<svg width="24" height="24" viewBox="0 0 24 24" fill="none" xmlns="http://www.w3.org/2000/svg">
<path d="M6.31593 2.04989C6.19046 1.93495 5.99198 2.03206 6.00025 2.20435L6.74284 17.6834C6.75068 17.8467 6.93975 17.9277 7.05861 17.8187L10.8369 14.3531C10.9293 14.2683 11.0749 14.2959 11.1318 14.4089L14.897 21.8947C14.945 21.9901 15.0593 22.0275 15.1524 21.9783L16.6745 21.1738C16.7675 21.1246 16.8041 21.0074 16.7561 20.912L13.1235 13.6898C13.0614 13.5664 13.1419 13.418 13.2768 13.407L17.8253 13.0339C17.9915 13.0203 18.0608 12.8092 17.9365 12.6953L6.31593 2.04989Z" fill="#33363D"/>
<path fill-rule="evenodd" clip-rule="evenodd" d="M6.99308 17.8471C6.87267 17.9566 6.68114 17.8752 6.6732 17.7112L5.92095 2.16212C5.91258 1.98905 6.11364 1.8915 6.24074 2.00695L18.0124 12.7005C18.1384 12.8149 18.0681 13.027 17.8998 13.0407L13.2922 13.4154C13.1554 13.4265 13.0739 13.5756 13.1368 13.6995L16.8167 20.9544C16.8653 21.0502 16.8283 21.1679 16.734 21.2174L15.1921 22.0256C15.0978 22.075 14.982 22.0373 14.9334 21.9415L11.1192 14.4219C11.0616 14.3083 10.9141 14.2807 10.8205 14.3658L6.99308 17.8471ZM10.4361 17.3351L8.27365 19.302C6.94913 20.5067 4.84234 19.6116 4.75504 17.8071L4.00279 2.25802C3.91069 0.354322 6.12233 -0.718825 7.52042 0.551221L19.2921 11.2448C20.6775 12.5033 19.905 14.8361 18.0529 14.9868L16.0338 15.151L18.5236 20.0597C19.0583 21.1138 18.6511 22.409 17.6141 22.9526L16.0722 23.7608C15.0352 24.3043 13.7612 23.8904 13.2265 22.8362L10.4361 17.3351Z" fill="white"/>
</svg>
