<svg width="24" height="24" viewBox="0 0 24 24" fill="none" xmlns="http://www.w3.org/2000/svg">
<path fill-rule="evenodd" clip-rule="evenodd" d="M5.8 2C4.80589 2 4 2.80589 4 3.8V20.2002C4 21.1943 4.80589 22.0002 5.8 22.0002H18.1992C19.1933 22.0002 19.9992 21.1943 19.9992 20.2002V8.5002C19.9992 8.28805 19.915 8.08458 19.765 7.93456L14.0657 2.23436C13.9157 2.0843 13.7122 2 13.5 2H5.8ZM5.6 3.8C5.6 3.68954 5.68954 3.6 5.8 3.6H12.7V7.5002C12.7 8.49431 13.5059 9.3002 14.5 9.3002H18.3992V20.2002C18.3992 20.3107 18.3097 20.4002 18.1992 20.4002H5.8C5.68954 20.4002 5.6 20.3107 5.6 20.2002V3.8ZM17.2681 7.7002L14.3 4.73161V7.5002C14.3 7.61065 14.3895 7.7002 14.5 7.7002H17.2681ZM16.2613 11.4511C16.5106 11.0863 16.4169 10.5885 16.0521 10.3393C15.6873 10.09 15.1895 10.1836 14.9403 10.5484L11.3843 15.7523L9.56473 13.9339C9.25221 13.6216 8.74568 13.6218 8.43336 13.9343C8.12103 14.2468 8.12119 14.7533 8.43371 15.0656L10.9353 17.5656C11.1036 17.7339 11.3382 17.8185 11.5752 17.7963C11.8122 17.7742 12.027 17.6477 12.1613 17.4511L16.2613 11.4511Z" fill="#33363D"/>
</svg>
