<svg width="24" height="24" viewBox="0 0 24 24" fill="none" xmlns="http://www.w3.org/2000/svg">
<path fill-rule="evenodd" clip-rule="evenodd" d="M4 3.8C4 2.80589 4.80589 2 5.8 2H13.5C13.7122 2 13.9157 2.0843 14.0657 2.23436L19.765 7.93456C19.915 8.08458 19.9992 8.28805 19.9992 8.5002V20.2002C19.9992 21.1943 19.1933 22.0002 18.1992 22.0002H5.8C4.80589 22.0002 4 21.1943 4 20.2002V3.8ZM14.3 4.73161L17.2681 7.7002H14.5C14.3895 7.7002 14.3 7.61065 14.3 7.5002V4.73161ZM7.19922 13.4001C7.19922 12.9583 7.55739 12.6001 7.99922 12.6001H11.9992C12.441 12.6001 12.7992 12.9583 12.7992 13.4001C12.7992 13.8419 12.441 14.2001 11.9992 14.2001H7.99922C7.55739 14.2001 7.19922 13.8419 7.19922 13.4001ZM7.99922 16C7.55739 16 7.19922 16.3582 7.19922 16.8C7.19922 17.2418 7.55739 17.6 7.99922 17.6H14.9992C15.441 17.6 15.7992 17.2418 15.7992 16.8C15.7992 16.3582 15.441 16 14.9992 16H7.99922Z" fill="#33363D"/>
</svg>
