<svg width="24" height="24" viewBox="0 0 24 24" fill="none" xmlns="http://www.w3.org/2000/svg">
<path fill-rule="evenodd" clip-rule="evenodd" d="M12.5754 16.0542C12.4246 16.2111 12.2163 16.2998 11.9987 16.2998C11.7811 16.2998 11.5729 16.2111 11.4221 16.0542L6.42206 10.8542C6.11583 10.5358 6.12576 10.0293 6.44424 9.72309C6.76273 9.41685 7.26916 9.42678 7.5754 9.74527L11.1987 13.5135V3.79976C11.1987 3.35793 11.5569 2.99976 11.9987 2.99976C12.4406 2.99976 12.7987 3.35793 12.7987 3.79976V13.5135L16.4221 9.74527C16.7283 9.42678 17.2347 9.41685 17.5532 9.72309C17.8717 10.0293 17.8816 10.5358 17.5754 10.8542L12.5754 16.0542ZM3.60029 16.0003C3.6004 15.5585 3.24232 15.2003 2.80049 15.2001C2.35866 15.2 2.0004 15.5581 2.00029 16L1.99951 19.2C1.99946 19.4122 2.08372 19.6157 2.23376 19.7658C2.38379 19.9158 2.5873 20.0001 2.79951 20.0001H21.1987C21.6406 20.0001 21.9987 19.642 21.9987 19.2001V16.0001C21.9987 15.5583 21.6406 15.2001 21.1987 15.2001C20.7569 15.2001 20.3987 15.5583 20.3987 16.0001V18.4001H3.59971L3.60029 16.0003Z" fill="#33363D"/>
</svg>
