<svg width="24" height="24" viewBox="0 0 24 24" fill="none" xmlns="http://www.w3.org/2000/svg">
<path fill-rule="evenodd" clip-rule="evenodd" d="M7.84279 3.00069C7.85776 3.00006 7.87276 2.99987 7.88775 3.00009C8.86548 3.01458 9.82407 3.27465 10.667 3.75671C11.1589 4.038 11.5645 4.46623 11.8833 4.87468C11.9227 4.92515 11.9614 4.97606 11.9992 5.02722C12.0371 4.97606 12.0757 4.92515 12.1151 4.87468C12.4339 4.46623 12.8396 4.03801 13.3314 3.75671C14.1744 3.27465 15.133 3.01458 16.1107 3.00009C16.1257 2.99987 16.1407 3.00006 16.1557 3.00069C17.7007 3.06467 19.1645 3.70893 20.2243 4.80459C21.2817 5.89773 21.8507 7.35228 21.7956 8.85363C21.7937 9.43673 21.6919 10.0222 21.5165 10.6003L21.5 10.6002H19.8246C20.0654 9.97883 20.1956 9.38691 20.1956 8.83774C20.1956 8.82719 20.1958 8.81664 20.1962 8.80609C20.2381 7.74702 19.8393 6.7079 19.0743 5.917C18.313 5.12998 17.2499 4.65307 16.112 4.6003C15.4092 4.61445 14.7244 4.80326 14.1257 5.14563C13.8936 5.27837 13.639 5.52262 13.3764 5.85914C13.1193 6.18845 12.8895 6.56011 12.691 6.90192C12.5479 7.14847 12.2843 7.3002 11.9992 7.3002C11.7141 7.3002 11.4506 7.14847 11.3074 6.90192C11.1089 6.56011 10.8791 6.18845 10.6221 5.85914C10.3594 5.52262 10.1048 5.27837 9.8727 5.14563C9.27403 4.80326 8.58926 4.61445 7.88645 4.6003C6.7485 4.65307 5.68545 5.12998 4.92415 5.917C4.15911 6.7079 3.7603 7.74703 3.80223 8.80609C3.80264 8.81664 3.80285 8.82719 3.80285 8.83774C3.80285 9.38693 3.93302 9.97885 4.17383 10.6002H2.5L2.48193 10.6003C2.30654 10.0222 2.20469 9.43674 2.20288 8.85362C2.1478 7.35227 2.71673 5.89773 3.77414 4.80459C4.83397 3.70893 6.29773 3.06467 7.84279 3.00069ZM20.3873 13.0116C20.5514 12.746 20.7069 12.4751 20.8504 12.2002H19.9H19.5H19.0078H15.4281L13.6656 9.55645C13.5008 9.30926 13.2126 9.17374 12.9172 9.20451C12.6217 9.23528 12.3676 9.42726 12.2572 9.70309L10.7078 13.5766L9.56569 12.4345C9.41566 12.2845 9.21217 12.2002 9 12.2002H4.99075H4.5H4.1H3.14811C3.29162 12.4751 3.44704 12.7459 3.61116 13.0115C3.77517 13.2769 3.94979 13.5401 4.1328 13.8002H4.5H6.13584H8.66863L10.4343 15.5659C10.6245 15.756 10.8974 15.8379 11.1609 15.7839C11.4243 15.7298 11.6429 15.547 11.7428 15.2973L13.178 11.7094L14.3344 13.444C14.4827 13.6665 14.7325 13.8002 15 13.8002H17.8629H19.5H19.8658C20.0488 13.5401 20.2233 13.277 20.3873 13.0116ZM5.38557 15.4002H7.54604C7.60616 15.4631 7.66643 15.5256 7.72681 15.5876C8.75008 16.6396 9.7871 17.5541 10.5912 18.221C10.9927 18.554 11.3346 18.8239 11.5855 19.017C11.7109 19.1135 11.8132 19.1904 11.8883 19.2461C11.9259 19.2739 11.9562 19.2961 11.9789 19.3124L11.9993 19.327L12.0202 19.3121C12.0427 19.2959 12.0729 19.2738 12.1105 19.246C12.1855 19.1905 12.2877 19.1137 12.4131 19.0172C12.6639 18.8244 13.0057 18.5545 13.4072 18.2216C14.2113 17.5548 15.2483 16.6402 16.2716 15.5882C16.3322 15.5259 16.3926 15.4633 16.4529 15.4002H18.6132C18.2233 15.8543 17.8202 16.2908 17.4185 16.7038C15.2802 18.9022 13.0965 20.5172 12.8801 20.6633L12.8799 20.6634L12.4466 20.9557C12.1762 21.138 11.8222 21.138 11.5519 20.9557L11.1186 20.6634L11.1165 20.662C10.902 20.5164 8.71872 18.902 6.57992 16.7033C6.17836 16.2905 5.77545 15.8541 5.38557 15.4002Z" fill="#33363D"/>
</svg>
