<svg width="24" height="24" viewBox="0 0 24 24" fill="none" xmlns="http://www.w3.org/2000/svg">
<path fill-rule="evenodd" clip-rule="evenodd" d="M16.4343 2.43427C16.7467 2.12185 17.2533 2.12185 17.5657 2.43427L21.5657 6.43427C21.7157 6.58429 21.8 6.78778 21.8 6.99995C21.8 7.21212 21.7157 7.41561 21.5657 7.56564L12.5657 16.5656C12.4157 16.7157 12.2122 16.8 12 16.8H8C7.55817 16.8 7.2 16.4418 7.2 16V12C7.2 11.7878 7.28429 11.5843 7.43431 11.4343L16.4343 2.43427ZM17 4.13132L15.1314 5.99995L18 8.86858L19.8686 6.99995L17 4.13132ZM16.8686 9.99995L14 7.13132L8.8 12.3313V15.2H11.6686L16.8686 9.99995ZM4.8 4.59995C4.68954 4.59995 4.6 4.68949 4.6 4.79995V19.2C4.6 19.3104 4.68954 19.4 4.8 19.4H19.2C19.3105 19.4 19.4 19.3104 19.4 19.2V12.2C19.4 11.7581 19.7582 11.4 20.2 11.4C20.6418 11.4 21 11.7581 21 12.2V19.2C21 20.1941 20.1941 21 19.2 21H4.8C3.80589 21 3 20.1941 3 19.2V4.79995C3 3.80584 3.80589 2.99995 4.8 2.99995H11.7992C12.241 2.99995 12.5992 3.35812 12.5992 3.79995C12.5992 4.24178 12.241 4.59995 11.7992 4.59995H4.8Z" fill="#33363D"/>
</svg>
