<svg width="24" height="24" viewBox="0 0 24 24" fill="none" xmlns="http://www.w3.org/2000/svg">
<path fill-rule="evenodd" clip-rule="evenodd" d="M3.99976 2.8C3.99976 2.35817 4.35793 2 4.79976 2H19.2C19.6418 2 20 2.35817 20 2.8C20 3.24183 19.6418 3.6 19.2 3.6H4.79976C4.35793 3.6 3.99976 3.24183 3.99976 2.8Z" fill="#33363D"/>
<path fill-rule="evenodd" clip-rule="evenodd" d="M16.0497 7.08117C15.7287 7.3848 15.2224 7.37073 14.9188 7.04976L12.8 4.80986L12.8 21.2002C12.8 21.642 12.4418 22.0002 12 22.0002C11.5581 22.0002 11.2 21.642 11.2 21.2002L11.2 4.80986L9.08113 7.04976C8.7775 7.37073 8.27117 7.3848 7.95019 7.08117C7.62922 6.77755 7.61515 6.27121 7.91878 5.95024L11.4188 2.25024C11.5699 2.0905 11.7801 2 12 2C12.2198 2 12.43 2.0905 12.5811 2.25024L16.0811 5.95024C16.3848 6.27121 16.3707 6.77755 16.0497 7.08117Z" fill="#33363D"/>
<path fill-rule="evenodd" clip-rule="evenodd" d="M7.95019 16.919C8.27116 16.6154 8.7775 16.6295 9.08113 16.9504L11.8547 19.8825C11.9336 19.9659 12.0663 19.9659 12.1452 19.8825L14.9188 16.9504C15.2224 16.6295 15.7287 16.6154 16.0497 16.919C16.3707 17.2226 16.3847 17.729 16.0811 18.05L13.3076 20.982C12.5975 21.7327 11.4025 21.7327 10.6923 20.982L7.91878 18.05C7.61515 17.729 7.62922 17.2226 7.95019 16.919Z" fill="#33363D"/>
<path fill-rule="evenodd" clip-rule="evenodd" d="M3.99976 21.2C3.99976 20.7582 4.35793 20.4 4.79976 20.4H19.2C19.6418 20.4 20 20.7582 20 21.2C20 21.6418 19.6418 22 19.2 22H4.79976C4.35793 22 3.99976 21.6418 3.99976 21.2Z" fill="#33363D"/>
</svg>
