<svg width="24" height="24" viewBox="0 0 24 24" fill="none" xmlns="http://www.w3.org/2000/svg">
<path d="M11.9996 4.00049C12.7728 4.00049 13.3996 4.62729 13.3996 5.40049C13.3996 6.17369 12.7728 6.80049 11.9996 6.80049C11.2264 6.80049 10.5996 6.17369 10.5996 5.40049C10.5996 4.62729 11.2264 4.00049 11.9996 4.00049Z" fill="#33363D"/>
<path d="M11.9996 10.6021C12.7728 10.6021 13.3996 11.2289 13.3996 12.0021C13.3996 12.7752 12.7728 13.4021 11.9996 13.4021C11.2264 13.4021 10.5996 12.7752 10.5996 12.0021C10.5996 11.2289 11.2264 10.6021 11.9996 10.6021Z" fill="#33363D"/>
<path d="M13.3996 18.5997C13.3996 17.8265 12.7728 17.1997 11.9996 17.1997C11.2264 17.1997 10.5996 17.8265 10.5996 18.5997C10.5996 19.3729 11.2264 19.9997 11.9996 19.9997C12.7728 19.9997 13.3996 19.3729 13.3996 18.5997Z" fill="#33363D"/>
</svg>
