<svg width="24" height="24" viewBox="0 0 24 24" fill="none" xmlns="http://www.w3.org/2000/svg">
<path d="M12.7708 2.77886C12.7708 2.34871 12.4221 2 11.9919 2C11.5618 2 11.2131 2.34871 11.2131 2.77886V5.39292C11.2131 5.82307 11.5618 6.17178 11.9919 6.17178C12.4221 6.17178 12.7708 5.82307 12.7708 5.39292V2.77886Z" fill="#33363D"/>
<path d="M4.10503 4.07271C3.78723 3.78282 3.2946 3.80544 3.00471 4.12324C2.71482 4.44103 2.73745 4.93366 3.05524 5.22355L5.21819 7.19656C5.53598 7.48645 6.02861 7.46382 6.3185 7.14603C6.60839 6.82823 6.58577 6.3356 6.26797 6.04571L4.10503 4.07271Z" fill="#33363D"/>
<path d="M20.9285 5.22354C21.2462 4.93364 21.2689 4.44102 20.979 4.12322C20.6891 3.80543 20.1964 3.78282 19.8786 4.07272L17.7158 6.04572C17.398 6.33562 17.3754 6.82825 17.6653 7.14604C17.9552 7.46383 18.4478 7.48644 18.7656 7.19655L20.9285 5.22354Z" fill="#33363D"/>
<path d="M17.8667 14.5C18.5373 14.5 19.0174 13.8535 18.8247 13.2112L17.6234 9.2067C17.4964 8.78324 17.1066 8.49324 16.6645 8.49324H7.34209C6.89998 8.49324 6.51022 8.78324 6.38318 9.20669L5.18183 13.2112C4.98913 13.8535 5.46924 14.5 6.13986 14.5H17.8667Z" fill="#33363D"/>
<path d="M20.0206 21.0003H3.98672C3.37867 21.0003 3.07465 21.0003 2.87173 20.8734C2.69402 20.7624 2.56463 20.5885 2.50929 20.3863C2.4461 20.1555 2.53346 19.8643 2.70818 19.2819L3.35812 17.1154C3.45164 16.8037 3.4984 16.6478 3.58694 16.5295C3.68386 16.3999 3.81638 16.3013 3.96835 16.2457C4.10718 16.1949 4.26991 16.1949 4.59536 16.1949H19.412C19.7375 16.1949 19.9002 16.1949 20.039 16.2457C20.191 16.3013 20.3235 16.3999 20.4204 16.5295C20.509 16.6479 20.5557 16.8037 20.6492 17.1154L21.2992 19.2819C21.4739 19.8643 21.5613 20.1555 21.4981 20.3863C21.4427 20.5885 21.3133 20.7624 21.1356 20.8734C20.9327 21.0003 20.6287 21.0003 20.0206 21.0003Z" fill="#33363D"/>
</svg>
