<svg width="24" height="24" viewBox="0 0 24 24" fill="none" xmlns="http://www.w3.org/2000/svg">
<path fill-rule="evenodd" clip-rule="evenodd" d="M2 12C2 17.5228 6.47715 22 12 22C17.5228 22 22 17.5229 22 12C22 6.47719 17.5228 2 12 2C6.47715 2 2 6.4772 2 12ZM12 20.4C7.36081 20.4 3.6 16.6392 3.6 12C3.6 7.36085 7.36081 3.6 12 3.6C16.6391 3.6 20.4 7.36085 20.4 12C20.4 16.6392 16.6392 20.4 12 20.4ZM10 10C10 10.5523 9.55229 11 9 11C8.44772 11 8 10.5523 8 10C8 9.44771 8.44772 9 9 9C9.55229 9 10 9.44771 10 10ZM10.7105 14.5107C11.1216 14.7026 11.5594 14.7999 11.9992 14.7999C12.439 14.7999 12.8769 14.7026 13.288 14.5107C13.6994 14.3187 14.0781 14.0347 14.3993 13.6706C14.6916 13.3393 15.1972 13.3077 15.5285 13.6C15.8598 13.8923 15.8914 14.3978 15.5991 14.7292C15.1382 15.2516 14.5834 15.6718 13.9646 15.9606C13.3454 16.2496 12.677 16.3999 11.9992 16.3999C11.3215 16.3999 10.653 16.2496 10.0339 15.9606C9.41503 15.6718 8.86023 15.2516 8.39933 14.7292C8.10702 14.3978 8.13865 13.8923 8.46997 13.6C8.80128 13.3077 9.30683 13.3393 9.59913 13.6706C9.92034 14.0347 10.2991 14.3187 10.7105 14.5107ZM16 10C16 10.5523 15.5523 11 15 11C14.4477 11 14 10.5523 14 10C14 9.44771 14.4477 9 15 9C15.5523 9 16 9.44771 16 10Z" fill="#256EF4"/>
</svg>
