<svg width="24" height="24" viewBox="0 0 24 24" fill="none" xmlns="http://www.w3.org/2000/svg">
<path fill-rule="evenodd" clip-rule="evenodd" d="M2 12C2 17.5228 6.47715 22 12 22C17.5228 22 22 17.5229 22 12C22 6.47719 17.5228 2 12 2C6.47715 2 2 6.4772 2 12ZM12 20.4C7.36081 20.4 3.6 16.6392 3.6 12C3.6 7.36085 7.36081 3.6 12 3.6C16.6391 3.6 20.4 7.36085 20.4 12C20.4 16.6392 16.6392 20.4 12 20.4ZM10 10C10 10.5523 9.55229 11 9 11C8.44772 11 8 10.5523 8 10C8 9.44771 8.44772 9 9 9C9.55229 9 10 9.44771 10 10ZM10.7105 14.689C11.1216 14.4971 11.5594 14.3998 11.9992 14.3998C12.439 14.3998 12.8769 14.4971 13.288 14.689C13.6994 14.881 14.0781 15.165 14.3993 15.5291C14.6916 15.8604 15.1972 15.892 15.5285 15.5997C15.8598 15.3074 15.8914 14.8019 15.5991 14.4705C15.1382 13.9481 14.5834 13.5279 13.9646 13.2391C13.3454 12.9501 12.677 12.7998 11.9992 12.7998C11.3215 12.7998 10.653 12.9501 10.0339 13.2391C9.41503 13.5279 8.86023 13.9481 8.39933 14.4705C8.10702 14.8019 8.13865 15.3074 8.46997 15.5997C8.80128 15.892 9.30683 15.8604 9.59913 15.5291C9.92034 15.165 10.2991 14.881 10.7105 14.689ZM16 10C16 10.5523 15.5523 11 15 11C14.4477 11 14 10.5523 14 10C14 9.44771 14.4477 9 15 9C15.5523 9 16 9.44771 16 10Z" fill="#256EF4"/>
</svg>
