<svg width="24" height="24" viewBox="0 0 24 24" fill="none" xmlns="http://www.w3.org/2000/svg">
<path d="M7.0188 18.0002C7.57108 18.0002 8.0188 17.5525 8.0188 17.0002C8.0188 16.448 7.57108 16.0002 7.0188 16.0002C6.46651 16.0002 6.0188 16.448 6.0188 17.0002C6.0188 17.5525 6.46651 18.0002 7.0188 18.0002Z" fill="#33363D"/>
<path fill-rule="evenodd" clip-rule="evenodd" d="M3.21875 7.0002C3.21875 4.90151 4.92007 3.2002 7.01875 3.2002C8.0681 3.2002 9.01811 3.62553 9.70578 4.31321C10.3935 5.00088 10.8188 5.95089 10.8188 7.00024V7.34608L11.7133 6.45162C13.1973 4.96762 15.6033 4.96763 17.0873 6.45162C18.5713 7.93561 18.5713 10.3416 17.0873 11.8256L15.7127 13.2002H17.0188C19.1174 13.2002 20.8188 14.9015 20.8188 17.0002C20.8188 19.0989 19.1174 20.8002 17.0188 20.8002L7.19885 20.8002L7.2032 20.7958C7.1421 20.7988 7.08062 20.8002 7.0188 20.8002C6.24534 20.8002 5.52586 20.5691 4.92562 20.1723C4.7115 20.0307 4.51255 19.868 4.33174 19.6872C3.64408 18.9995 3.21875 18.0495 3.21875 17.0002V7.0002ZM10.1176 19.2002H17.0188C18.2338 19.2002 19.2188 18.2152 19.2188 17.0002C19.2188 15.7852 18.2338 14.8002 17.0188 14.8002H14.1127L10.5777 18.3352C10.4615 18.6447 10.3061 18.9351 10.1176 19.2002ZM10.8188 15.8314V9.60882L12.8446 7.58299C13.7038 6.72383 15.0967 6.72383 15.9559 7.58299C16.8151 8.44214 16.8151 9.8351 15.9559 10.6943L10.8188 15.8314ZM7.0188 4.80024C7.62511 4.80024 8.17414 5.04552 8.57207 5.44225C8.97155 5.84056 9.21875 6.39151 9.21875 7.0002V17.0002C9.21875 18.2152 8.23378 19.2002 7.01875 19.2002C6.40769 19.2002 5.85482 18.9511 5.45616 18.5488C5.06216 18.1513 4.8188 17.6042 4.8188 17.0002V7.00024C4.8188 5.78522 5.80377 4.80024 7.0188 4.80024Z" fill="#33363D"/>
</svg>
