<svg width="24" height="24" viewBox="0 0 24 24" fill="none" xmlns="http://www.w3.org/2000/svg">
<path d="M13.5 3C13.5 3.82843 12.8284 4.5 12 4.5C11.1716 4.5 10.5 3.82843 10.5 3C10.5 2.17157 11.1716 1.5 12 1.5C12.8284 1.5 13.5 2.17157 13.5 3Z" fill="#33363D"/>
<path d="M13.5 21C13.5 21.8284 12.8284 22.5 12 22.5C11.1716 22.5 10.5 21.8284 10.5 21C10.5 20.1716 11.1716 19.5 12 19.5C12.8284 19.5 13.5 20.1716 13.5 21Z" fill="#33363D"/>
<path d="M4.5 12C4.5 12.8284 3.82843 13.5 3 13.5C2.17157 13.5 1.5 12.8284 1.5 12C1.5 11.1716 2.17157 10.5 3 10.5C3.82843 10.5 4.5 11.1716 4.5 12Z" fill="#33363D"/>
<path d="M7 5.5C7 6.32843 6.32843 7 5.5 7C4.67157 7 4 6.32843 4 5.5C4 4.67157 4.67157 4 5.5 4C6.32843 4 7 4.67157 7 5.5Z" fill="#33363D"/>
<path d="M7 18.5C7 19.3284 6.32843 20 5.5 20C4.67157 20 4 19.3284 4 18.5C4 17.6716 4.67157 17 5.5 17C6.32843 17 7 17.6716 7 18.5Z" fill="#33363D"/>
<path d="M20 5.5C20 6.32843 19.3284 7 18.5 7C17.6716 7 17 6.32843 17 5.5C17 4.67157 17.6716 4 18.5 4C19.3284 4 20 4.67157 20 5.5Z" fill="#33363D"/>
<path d="M20 18.5C20 19.3284 19.3284 20 18.5 20C17.6716 20 17 19.3284 17 18.5C17 17.6716 17.6716 17 18.5 17C19.3284 17 20 17.6716 20 18.5Z" fill="#33363D"/>
<path d="M22.5 12C22.5 12.8284 21.8284 13.5 21 13.5C20.1716 13.5 19.5 12.8284 19.5 12C19.5 11.1716 20.1716 10.5 21 10.5C21.8284 10.5 22.5 11.1716 22.5 12Z" fill="#33363D"/>
<path fill-rule="evenodd" clip-rule="evenodd" d="M12 16.8C9.34903 16.8 7.2 14.651 7.2 12C7.2 9.34905 9.34903 7.2 12 7.2C14.6509 7.2 16.8 9.34905 16.8 12C16.8 14.651 14.6509 16.8 12 16.8ZM8.8 12C8.8 13.7673 10.2327 15.2 12 15.2C13.7673 15.2 15.2 13.7673 15.2 12C15.2 10.2327 13.7673 8.8 12 8.8C10.2327 8.8 8.8 10.2327 8.8 12Z" fill="#33363D"/>
</svg>
