<svg width="24" height="24" viewBox="0 0 24 24" fill="none" xmlns="http://www.w3.org/2000/svg">
<path d="M11 4.3002C11 5.18385 10.2837 5.9002 9.4 5.9002C8.51634 5.9002 7.8 5.18385 7.8 4.3002C7.8 3.41654 8.51634 2.7002 9.4 2.7002C10.2837 2.7002 11 3.41654 11 4.3002Z" fill="#33363D"/>
<path d="M6.2 9.3998C6.2 10.2835 5.48366 10.9998 4.6 10.9998C3.71634 10.9998 3 10.2835 3 9.3998C3 8.51615 3.71634 7.7998 4.6 7.7998C5.48366 7.7998 6.2 8.51615 6.2 9.3998Z" fill="#33363D"/>
<path d="M5.9 4.3C5.9 5.01797 5.31797 5.6 4.6 5.6C3.88203 5.6 3.3 5.01797 3.3 4.3C3.3 3.58203 3.88203 3 4.6 3C5.31797 3 5.9 3.58203 5.9 4.3Z" fill="#33363D"/>
<path d="M5.9 19.6999C5.9 20.4179 5.31797 20.9999 4.6 20.9999C3.88203 20.9999 3.3 20.4179 3.3 19.6999C3.3 18.9819 3.88203 18.3999 4.6 18.3999C5.31797 18.3999 5.9 18.9819 5.9 19.6999Z" fill="#33363D"/>
<path d="M20.7 4.3C20.7 5.01797 20.118 5.6 19.4 5.6C18.682 5.6 18.1 5.01797 18.1 4.3C18.1 3.58203 18.682 3 19.4 3C20.118 3 20.7 3.58203 20.7 4.3Z" fill="#33363D"/>
<path d="M20.7 19.6999C20.7 20.4179 20.118 20.9999 19.4 20.9999C18.682 20.9999 18.1 20.4179 18.1 19.6999C18.1 18.9819 18.682 18.3999 19.4 18.3999C20.118 18.3999 20.7 18.9819 20.7 19.6999Z" fill="#33363D"/>
<path d="M21.0008 9.3998C21.0008 10.2835 20.2844 10.9998 19.4008 10.9998C18.5171 10.9998 17.8008 10.2835 17.8008 9.3998C17.8008 8.51615 18.5171 7.7998 19.4008 7.7998C20.2844 7.7998 21.0008 8.51615 21.0008 9.3998Z" fill="#33363D"/>
<path d="M6.2 14.6C6.2 15.4837 5.48366 16.2 4.6 16.2C3.71634 16.2 3 15.4837 3 14.6C3 13.7163 3.71634 13 4.6 13C5.48366 13 6.2 13.7163 6.2 14.6Z" fill="#33363D"/>
<path d="M21.0008 14.6C21.0008 15.4837 20.2844 16.2 19.4008 16.2C18.5171 16.2 17.8008 15.4837 17.8008 14.6C17.8008 13.7163 18.5171 13 19.4008 13C20.2844 13 21.0008 13.7163 21.0008 14.6Z" fill="#33363D"/>
<path d="M11 19.7001C11 20.5838 10.2837 21.3001 9.4 21.3001C8.51634 21.3001 7.8 20.5838 7.8 19.7001C7.8 18.8164 8.51634 18.1001 9.4 18.1001C10.2837 18.1001 11 18.8164 11 19.7001Z" fill="#33363D"/>
<path d="M11.4 9.3999C11.4 10.5045 10.5046 11.3999 9.4 11.3999C8.29543 11.3999 7.4 10.5045 7.4 9.3999C7.4 8.29533 8.29543 7.3999 9.4 7.3999C10.5046 7.3999 11.4 8.29533 11.4 9.3999Z" fill="#33363D"/>
<path d="M16.6 9.3999C16.6 10.5045 15.7046 11.3999 14.6 11.3999C13.4954 11.3999 12.6 10.5045 12.6 9.3999C12.6 8.29533 13.4954 7.3999 14.6 7.3999C15.7046 7.3999 16.6 8.29533 16.6 9.3999Z" fill="#33363D"/>
<path d="M11.4 14.6001C11.4 15.7047 10.5046 16.6001 9.4 16.6001C8.29543 16.6001 7.4 15.7047 7.4 14.6001C7.4 13.4955 8.29543 12.6001 9.4 12.6001C10.5046 12.6001 11.4 13.4955 11.4 14.6001Z" fill="#33363D"/>
<path d="M16.2 4.3002C16.2 5.18385 15.4837 5.9002 14.6 5.9002C13.7163 5.9002 13 5.18385 13 4.3002C13 3.41654 13.7163 2.7002 14.6 2.7002C15.4837 2.7002 16.2 3.41654 16.2 4.3002Z" fill="#33363D"/>
<path d="M16.6 14.6001C16.6 15.7047 15.7046 16.6001 14.6 16.6001C13.4954 16.6001 12.6 15.7047 12.6 14.6001C12.6 13.4955 13.4954 12.6001 14.6 12.6001C15.7046 12.6001 16.6 13.4955 16.6 14.6001Z" fill="#33363D"/>
<path d="M16.2 19.7001C16.2 20.5838 15.4837 21.3001 14.6 21.3001C13.7163 21.3001 13 20.5838 13 19.7001C13 18.8164 13.7163 18.1001 14.6 18.1001C15.4837 18.1001 16.2 18.8164 16.2 19.7001Z" fill="#33363D"/>
</svg>
