<svg width="24" height="24" viewBox="0 0 24 24" fill="none" xmlns="http://www.w3.org/2000/svg">
<path fill-rule="evenodd" clip-rule="evenodd" d="M6.84018 21.2002L6.84019 17.1567C5.77315 16.8179 5 15.8192 5 14.64C5 13.4608 5.77315 12.4621 6.84019 12.1233V2.8C6.84019 2.35817 7.19836 2 7.64019 2C8.08201 2 8.44019 2.35817 8.44019 2.8V12.1234C9.50703 12.4624 10.28 13.4609 10.28 14.64C10.28 15.8191 9.50703 16.8176 8.44019 17.1566L8.44018 21.2002C8.44018 21.642 8.08201 22.0002 7.64018 22.0002C7.19836 22.0002 6.84018 21.642 6.84018 21.2002ZM6.6 14.64C6.6 15.2144 7.06562 15.68 7.64 15.68C8.21438 15.68 8.68 15.2144 8.68 14.64C8.68 14.0656 8.21438 13.6 7.64 13.6C7.06562 13.6 6.6 14.0656 6.6 14.64Z" fill="#33363D"/>
<path fill-rule="evenodd" clip-rule="evenodd" d="M17.4402 6.3234C18.507 6.66232 19.28 7.66087 19.28 8.83995C19.28 10.019 18.507 11.0176 17.4402 11.3565L17.4402 21.4001C17.4402 21.842 17.082 22.2001 16.6402 22.2001C16.1984 22.2001 15.8402 21.842 15.8402 21.4001V11.3566C14.7731 11.0178 14 10.0192 14 8.83995C14 7.66073 14.7731 6.66209 15.8402 6.32328V2.99995C15.8402 2.55812 16.1984 2.19995 16.6402 2.19995C17.082 2.19995 17.4402 2.55812 17.4402 2.99995V6.3234ZM16.64 9.87995C16.0656 9.87995 15.6 9.41433 15.6 8.83995C15.6 8.26558 16.0656 7.79995 16.64 7.79995C17.2144 7.79995 17.68 8.26558 17.68 8.83995C17.68 9.41433 17.2144 9.87995 16.64 9.87995Z" fill="#33363D"/>
</svg>
