<svg width="24" height="24" viewBox="0 0 24 24" fill="none" xmlns="http://www.w3.org/2000/svg">
<path fill-rule="evenodd" clip-rule="evenodd" d="M11.5847 19.6833C7.92672 17.4905 4.61537 18.7877 3.47984 19.6393C3.23744 19.8211 2.91312 19.8504 2.6421 19.7148C2.37108 19.5793 2.19988 19.3023 2.19988 18.9993V6.99969C2.19988 6.74789 2.31844 6.51079 2.51987 6.35971C3.99809 5.25104 7.79788 3.81207 11.9658 6.06007C13.7405 4.98468 17.4418 3.93225 21.4109 6.31372C21.6519 6.45829 21.7993 6.71869 21.7993 6.99969V18.9993C21.7993 19.2875 21.6443 19.5535 21.3935 19.6955C21.1427 19.8375 20.8349 19.8336 20.5877 19.6853C16.9322 17.492 13.6222 18.7848 12.4831 19.6367C12.4689 19.6474 12.4543 19.6577 12.4394 19.6676C12.3879 19.7014 12.3333 19.7289 12.2768 19.7497C12.1842 19.784 12.0867 19.8005 11.9895 19.7992C11.908 19.7982 11.8267 19.7848 11.7485 19.7589C11.7046 19.7444 11.6616 19.7259 11.6201 19.7036C11.6081 19.6971 11.5963 19.6903 11.5847 19.6833ZM3.79984 17.6277V7.4247C5.10535 6.6314 7.99213 5.74075 11.1996 7.46483V17.685C8.2367 16.3828 5.52705 16.8635 3.79984 17.6277ZM12.7996 17.6277C14.5268 16.8635 17.2364 16.3828 20.1993 17.685V7.46483C16.9919 5.74075 14.1051 6.6314 12.7996 7.4247V17.6277Z" fill="#33363D"/>
<circle cx="20.0001" cy="6.99979" r="2.99991" fill="#256EF4"/>
<circle cx="20.0001" cy="6.99979" r="3.99988" fill="#256EF4"/>
</svg>
