<svg width="24" height="24" viewBox="0 0 24 24" fill="none" xmlns="http://www.w3.org/2000/svg">
<path fill-rule="evenodd" clip-rule="evenodd" d="M3.99995 4.19995C3.00584 4.19995 2.19995 5.00584 2.19995 5.99995V18C2.19995 18.9941 3.00584 19.8 3.99995 19.8H20C20.9941 19.8 21.7999 18.9941 21.7999 18V5.99995C21.7999 5.00584 20.9941 4.19995 20 4.19995H3.99995ZM3.79995 5.99995C3.79995 5.88949 3.88949 5.79995 3.99995 5.79995H8.99998L8.99997 18.2H3.99995C3.88949 18.2 3.79995 18.1104 3.79995 18V5.99995ZM10.6 18.2H20C20.1104 18.2 20.2 18.1104 20.2 18V5.99995C20.2 5.88949 20.1104 5.79995 20 5.79995H10.6L10.6 18.2Z" fill="#33363D"/>
</svg>
