<svg width="24" height="24" viewBox="0 0 24 24" fill="none" xmlns="http://www.w3.org/2000/svg">
<g clip-path="url(#clip0_887_44026)">
<path d="M0 4H24V20H0V4Z" fill="white"/>
<path d="M8.67188 9.78101C9.26036 8.89834 10.1754 8.2856 11.2157 8.07757C12.2559 7.86955 13.3362 8.08329 14.2189 8.67176C15.1016 9.26024 15.7144 10.1753 15.9224 11.2155C16.1304 12.2558 15.9167 13.336 15.3282 14.2187L8.67188 9.78101Z" fill="#D0303C"/>
<path d="M8.67177 9.78115C8.08329 10.6638 7.86954 11.7441 8.07757 12.7844C8.28559 13.8246 8.89834 14.7396 9.78101 15.3281C10.6637 15.9166 11.744 16.1303 12.7843 15.9223C13.8245 15.7143 14.7396 15.1016 15.328 14.2189C15.6223 13.7776 15.7292 13.2374 15.6251 12.7173C15.5211 12.1972 15.2148 11.7396 14.7734 11.4454C14.3321 11.1512 13.7919 11.0443 13.2718 11.1483C12.7517 11.2523 12.2941 11.5587 11.9999 12L8.67177 9.78115Z" fill="#134A9D"/>
<path d="M12.0001 12C12.6128 11.081 12.3645 9.83924 11.4454 9.22651C10.5264 8.61379 9.28467 8.8621 8.67194 9.78113C8.05921 10.7002 8.30752 11.9419 9.22656 12.5546C10.1456 13.1674 11.3873 12.919 12.0001 12Z" fill="#D0303C"/>
<path d="M3.67953 8.85664L5.89833 5.52844L6.45303 5.89824L4.23423 9.22644L3.67953 8.85664ZM4.51158 9.41134L6.73038 6.08314L7.28508 6.45294L5.06628 9.78114L4.51158 9.41134ZM5.34363 9.96604L7.56243 6.63784L8.11713 7.00764L5.89833 10.3358L5.34363 9.96604Z" fill="black"/>
<path d="M19.3036 16.6686L20.3205 15.1433L19.7658 14.7735L18.7489 16.2988L19.3036 16.6686Z" fill="black"/>
<path d="M18.4715 16.1139L19.4884 14.5886L18.9337 14.2188L17.9168 15.7441L18.4715 16.1139Z" fill="black"/>
<path d="M17.7319 16.0214L18.2866 16.3912L17.2696 17.9168L16.7149 17.547L17.7319 16.0214Z" fill="black"/>
<path d="M17.6395 15.5592L18.6564 14.0339L18.1017 13.6641L17.0848 15.1894L17.6395 15.5592Z" fill="black"/>
<path d="M16.8999 15.4667L17.4546 15.8365L16.4376 17.3621L15.8829 16.9923L16.8999 15.4667Z" fill="black"/>
<path d="M18.564 16.5761L19.1187 16.9459L18.1017 18.4715L17.547 18.1017L18.564 16.5761Z" fill="black"/>
<path d="M17.4545 8.16349L16.4375 6.63801L15.8828 7.00781L16.8998 8.53329L17.4545 8.16349Z" fill="black"/>
<path d="M17.0847 8.81064L18.1016 10.336L18.6563 9.96621L17.6394 8.44084L17.0847 8.81064Z" fill="black"/>
<path d="M18.9336 9.78131L16.7148 6.45311L17.2695 6.08331L19.4883 9.41151L18.9336 9.78131Z" fill="black"/>
<path d="M19.7657 9.22661L18.7487 7.70121L19.3034 7.33141L20.3204 8.85681L19.7657 9.22661Z" fill="black"/>
<path d="M19.1185 7.05406L18.5638 7.42386L17.5469 5.89841L18.1016 5.52861L19.1185 7.05406Z" fill="black"/>
<path d="M3.67944 15.1434L5.89824 18.4716L6.45294 18.1018L4.23414 14.7736L3.67944 15.1434Z" fill="black"/>
<path d="M5.71335 16.3915L6.73029 17.9169L7.28499 17.5471L6.26805 16.0217L5.71335 16.3915Z" fill="black"/>
<path d="M5.52845 16.1142L6.08315 15.7444L5.06619 14.2189L4.51149 14.5887L5.52845 16.1142Z" fill="black"/>
<path d="M5.34354 14.034L7.56234 17.3622L8.11705 16.9924L5.89824 13.6642L5.34354 14.034Z" fill="black"/>
</g>
<defs>
<clipPath id="clip0_887_44026">
<rect width="24" height="16" fill="white" transform="translate(0 4)"/>
</clipPath>
</defs>
</svg>
