<svg width="24" height="24" viewBox="0 0 24 24" fill="none" xmlns="http://www.w3.org/2000/svg">
<path d="M22 12C22 17.5235 17.5221 22 12.0009 22C6.47973 22 2 17.5235 2 12C2 6.47645 6.47604 2 12.0009 2C17.5258 2 22 6.4783 22 12Z" fill="white"/>
<path d="M16.7702 11.3038C15.1716 10.2235 13.1254 10.663 12.0504 12.2881C11.1554 13.6454 9.80189 13.8153 9.28015 13.8153C7.5701 13.8153 6.40221 12.6187 6.05501 11.3814C6.05129 11.3684 6.04758 11.3574 6.04572 11.3463C6.04201 11.3333 6.04015 11.3186 6.03458 11.3038C5.89718 10.7867 5.86376 10.5411 5.86376 9.99262C5.86376 7.03602 8.91623 3.74147 13.3093 3.74147C17.7023 3.74147 20.3853 7.14867 21.0518 9.04341C21.0388 9.00832 21.0277 8.97693 21.0165 8.94369C19.7391 5.23731 16.2058 2.57434 12.0467 2.57434C6.81627 2.57434 2.57178 6.79225 2.57178 12C2.57178 16.6538 5.94546 20.6353 10.6281 20.6353C14.3602 20.6353 16.8686 18.5559 18.0179 15.6842C18.6492 14.1145 18.2036 12.2715 16.7702 11.3019" fill="#003964"/>
<path d="M21.1057 9.2261C20.5506 7.37753 17.9586 3.74133 13.3056 3.74133C8.91257 3.74133 5.86011 7.03589 5.86011 9.99249C5.86011 10.541 5.89539 10.7866 6.03093 11.3037C5.97337 11.0765 5.94366 10.8512 5.94366 10.6315C5.94366 7.55112 9.0444 5.41631 12.2324 5.41631C16.5493 5.41631 20.0474 8.89553 20.0474 13.1873C20.0474 16.5502 18.0997 19.4643 15.2737 20.8623C18.9204 19.5511 21.5235 16.0774 21.5235 11.9999C21.5235 11.034 21.3935 10.1827 21.1076 9.2261" fill="#ED1A3B"/>
</svg>
