<svg width="24" height="24" viewBox="0 0 24 24" fill="none" xmlns="http://www.w3.org/2000/svg">
<path fill-rule="evenodd" clip-rule="evenodd" d="M4.8 3C3.80589 3 3 3.80589 3 4.8V9.3C3 10.2941 3.80589 11.1 4.8 11.1H13.6307L12 9.5H4.8C4.68954 9.5 4.6 9.41046 4.6 9.3V4.8C4.6 4.68954 4.68954 4.6 4.8 4.6H16.68L17.77 3H4.8ZM4.8 12.8999C3.80589 12.8999 3 13.7058 3 14.6999V19.1999C3 20.194 3.80589 20.9999 4.8 20.9999L13.5 21L11.9 19.3999H4.8C4.68954 19.3999 4.6 19.3104 4.6 19.1999V14.6999C4.6 14.5894 4.68954 14.4999 4.8 14.4999H16.7578L17.8 12.9531C17.7108 12.9187 17.6006 12.8999 17.4992 12.8999H4.8Z" fill="#33363D"/>
<path fill-rule="evenodd" clip-rule="evenodd" d="M20.448 3.33841C20.8133 3.587 20.9079 4.08462 20.6593 4.44988L16.576 10.4499C16.4419 10.6469 16.227 10.7739 15.9897 10.7962C15.7525 10.8186 15.5176 10.7341 15.349 10.5656L12.8477 8.06562C12.5352 7.75328 12.5351 7.24675 12.8474 6.93425C13.1598 6.62175 13.6663 6.62161 13.9788 6.93395L15.7968 8.75097L19.3365 3.54969C19.5851 3.18442 20.0828 3.08983 20.448 3.33841Z" fill="#256EF4"/>
<path fill-rule="evenodd" clip-rule="evenodd" d="M20.448 13.3384C20.8133 13.587 20.9079 14.0846 20.6593 14.4499L16.576 20.4499C16.4419 20.6469 16.227 20.7739 15.9897 20.7962C15.7525 20.8186 15.5176 20.7341 15.349 20.5656L12.8477 18.0656C12.5352 17.7533 12.5351 17.2467 12.8474 16.9342C13.1598 16.6217 13.6663 16.6216 13.9788 16.934L15.7968 18.751L19.3365 13.5497C19.5851 13.1844 20.0828 13.0898 20.448 13.3384Z" fill="#256EF4"/>
</svg>
