<svg width="24" height="24" viewBox="0 0 24 24" fill="none" xmlns="http://www.w3.org/2000/svg">
<path fill-rule="evenodd" clip-rule="evenodd" d="M11.9984 4.19998C7.69057 4.19998 4.19839 7.69216 4.19839 12V13.1042L7.24321 13.0783C8.24328 13.0698 9.05853 13.8782 9.05853 14.8783V19.6C9.05853 20.5941 8.25264 21.4 7.25853 21.4H4.39839C3.40428 21.4 2.59839 20.5941 2.59839 19.6V12C2.59839 6.8085 6.80691 2.59998 11.9984 2.59998C17.1899 2.59998 21.3984 6.8085 21.3984 12V19.6C21.3984 20.5941 20.5925 21.4 19.5984 21.4H16.7368C15.7427 21.4 14.9368 20.5941 14.9368 19.6V14.9111C14.9368 13.917 15.7427 13.1111 16.7368 13.1111H19.7984V12C19.7984 7.69216 16.3062 4.19998 11.9984 4.19998ZM19.7984 14.7111H16.7368C16.6263 14.7111 16.5368 14.8006 16.5368 14.9111V19.6C16.5368 19.7104 16.6263 19.8 16.7368 19.8H19.5984C19.7088 19.8 19.7984 19.7104 19.7984 19.6V14.7111ZM4.19839 14.7043V19.6C4.19839 19.7104 4.28793 19.8 4.39839 19.8H7.25853C7.36899 19.8 7.45853 19.7104 7.45853 19.6V14.8783C7.45853 14.7671 7.36794 14.6773 7.25683 14.6783L4.19839 14.7043Z" fill="#33363D"/>
</svg>
