<svg width="24" height="24" viewBox="0 0 24 24" fill="none" xmlns="http://www.w3.org/2000/svg">
<path fill-rule="evenodd" clip-rule="evenodd" d="M9.19922 4.4001C9.19922 3.40599 10.0051 2.6001 10.9992 2.6001H12.9992C13.9933 2.6001 14.7992 3.40599 14.7992 4.4001V5.6001H20.1984C21.1926 5.6001 21.9984 6.40598 21.9984 7.4001V18.2001C21.9984 19.1942 21.1926 20.0001 20.1984 20.0001H3.8C2.80589 20.0001 2 19.1942 2 18.2001V7.4001C2 6.40599 2.80589 5.6001 3.8 5.6001H9.19922V4.4001ZM14.7992 8.4001V7.2001H20.1984C20.3089 7.2001 20.3984 7.28964 20.3984 7.4001V18.2001C20.3984 18.3106 20.3089 18.4001 20.1984 18.4001H3.8C3.68954 18.4001 3.6 18.3106 3.6 18.2001V7.4001C3.6 7.28964 3.68954 7.2001 3.8 7.2001H9.19922V8.4001C9.19922 9.39421 10.0051 10.2001 10.9992 10.2001H12.9992C13.9933 10.2001 14.7992 9.39421 14.7992 8.4001ZM10.9992 4.2001C10.8888 4.2001 10.7992 4.28964 10.7992 4.4001V8.4001C10.7992 8.51055 10.8888 8.6001 10.9992 8.6001H12.9992C13.1097 8.6001 13.1992 8.51055 13.1992 8.4001V4.4001C13.1992 4.28964 13.1097 4.2001 12.9992 4.2001H10.9992ZM9.80156 12.35C9.80156 13.0956 9.19715 13.7 8.45156 13.7C7.70598 13.7 7.10156 13.0956 7.10156 12.35C7.10156 11.6044 7.70598 11 8.45156 11C9.19715 11 9.80156 11.6044 9.80156 12.35ZM5.40234 16.3999C5.40234 15.2953 6.29777 14.3999 7.40234 14.3999H8.40234H9.40234C10.5069 14.3999 11.4023 15.2953 11.4023 16.3999V16.7999H5.40234V16.3999ZM12.1992 12.4001C12.1992 11.9583 12.5574 11.6001 12.9992 11.6001H17.9992C18.441 11.6001 18.7992 11.9583 18.7992 12.4001C18.7992 12.8419 18.441 13.2001 17.9992 13.2001H12.9992C12.5574 13.2001 12.1992 12.8419 12.1992 12.4001ZM12.9992 14.6001C12.5574 14.6001 12.1992 14.9583 12.1992 15.4001C12.1992 15.8419 12.5574 16.2001 12.9992 16.2001H17.9992C18.441 16.2001 18.7992 15.8419 18.7992 15.4001C18.7992 14.9583 18.441 14.6001 17.9992 14.6001H12.9992Z" fill="#33363D"/>
</svg>
