<svg width="24" height="24" viewBox="0 0 24 24" fill="none" xmlns="http://www.w3.org/2000/svg">
<path fill-rule="evenodd" clip-rule="evenodd" d="M4.8 4.6C4.68954 4.6 4.6 4.68954 4.6 4.8V12.8958L7.96774 9.90227C8.24403 9.65668 8.65262 9.63237 8.95608 9.84348L19.3992 17.1083V4.8C19.3992 4.68954 19.3097 4.6 19.1992 4.6H4.8ZM4.6 19.2002V15.0365L8.55971 11.5168L19.3992 19.0573V19.2002C19.3992 19.3107 19.3097 19.4002 19.1992 19.4002H4.8C4.68954 19.4002 4.6 19.3107 4.6 19.2002ZM3 4.8C3 3.80589 3.80589 3 4.8 3H19.1992C20.1933 3 20.9992 3.80589 20.9992 4.8V19.2002C20.9992 20.1943 20.1933 21.0002 19.1992 21.0002H4.8C3.80589 21.0002 3 20.1943 3 19.2002V4.8ZM14.9984 8.3C14.9984 7.9134 15.3118 7.6 15.6984 7.6C16.085 7.6 16.3984 7.9134 16.3984 8.3C16.3984 8.6866 16.085 9 15.6984 9C15.3118 9 14.9984 8.6866 14.9984 8.3ZM15.6984 6C14.4282 6 13.3984 7.02975 13.3984 8.3C13.3984 9.57025 14.4282 10.6 15.6984 10.6C16.9687 10.6 17.9984 9.57025 17.9984 8.3C17.9984 7.02975 16.9687 6 15.6984 6Z" fill="#33363D"/>
</svg>
