<svg width="24" height="24" viewBox="0 0 24 24" fill="none" xmlns="http://www.w3.org/2000/svg">
<g clip-path="url(#clip0_2365_45470)">
<path d="M12.0009 3C7.30597 3 3.5 6.52336 3.5 10.8709C3.5 14.0818 4.8435 15.615 6.68351 17.0112L6.69263 17.0149V20.7831C6.69263 20.9622 6.89525 21.0627 7.03764 20.9567L10.2613 18.5609L10.3307 18.5902C10.871 18.6907 11.4296 18.7418 12.0009 18.7418C16.6959 18.7418 20.5 15.2185 20.5 10.8709C20.5 6.52336 16.694 3 12.0009 3ZM9.15145 12.8665C9.98567 12.8665 10.6976 12.3676 10.913 11.5964H12.1451C11.8439 13.0803 10.6903 14.0544 9.15328 14.0544C7.36621 14.0544 5.94969 12.7203 5.94969 10.8636C5.94969 9.0069 7.36621 7.67284 9.15328 7.67284C10.7067 7.67284 11.8677 8.66516 12.1542 10.1765H10.9257C10.7396 9.35594 10.0021 8.84425 9.15328 8.84425C7.95216 8.84425 7.15264 9.70133 7.15264 10.8636C7.15264 12.0259 8.06169 12.8665 9.15328 12.8665M17.2745 13.9319H16.1446V11.3808C16.1446 10.7942 15.8032 10.478 15.2775 10.478C14.6916 10.478 14.3155 10.838 14.3155 11.5654V13.9319H13.1856V7.69112H14.3155V10.0376C14.5857 9.62641 15.0238 9.42356 15.6189 9.42356C16.1008 9.42356 16.4951 9.58072 16.7999 9.90601C17.1157 10.2295 17.2727 10.6681 17.2727 11.2382V13.9301L17.2745 13.9319Z" fill="#33363D"/>
</g>
<defs>
<clipPath id="clip0_2365_45470">
<rect width="24" height="24" fill="white"/>
</clipPath>
</defs>
</svg>
