<svg width="24" height="24" viewBox="0 0 24 24" fill="none" xmlns="http://www.w3.org/2000/svg">
<path fill-rule="evenodd" clip-rule="evenodd" d="M10.979 2.60037C11.1913 2.59479 11.3971 2.67385 11.551 2.82012L15.7467 6.80639C15.6645 6.80202 15.5817 6.7998 15.4984 6.7998C14.8872 6.7998 14.3038 6.91903 13.7702 7.13549L11.0298 4.53188L4.6 11.3188V19.4H8.19922C8.26947 19.4 8.33761 19.4091 8.40253 19.4261L8.40234 19.4641V20.974C8.33748 20.991 8.2694 21 8.19922 21H3.8C3.35817 21 3 20.6418 3 20.2V11C3 10.7953 3.07846 10.5984 3.21924 10.4498L10.4192 2.8499C10.5653 2.69573 10.7667 2.60596 10.979 2.60037ZM15.1254 8.42306C13.6453 8.60742 12.5 9.8699 12.5 11.3999C12.5 13.0568 13.8431 14.3999 15.5 14.3999C17.1569 14.3999 18.5 13.0568 18.5 11.3999C18.5 9.80589 17.2568 8.50223 15.6871 8.40564C15.6247 8.40177 15.5618 8.3998 15.4984 8.3998C15.372 8.3998 15.2474 8.40762 15.1251 8.4228L15.1254 8.42306ZM15.5 12.7999C16.2732 12.7999 16.9 12.1731 16.9 11.3999C16.9 10.6267 16.2732 9.9999 15.5 9.9999C14.7268 9.9999 14.1 10.6267 14.1 11.3999C14.1 12.1731 14.7268 12.7999 15.5 12.7999ZM10.7873 17.7602C13.5032 15.4484 17.4952 15.4484 20.2112 17.7602C20.7106 18.1854 20.9984 18.8083 20.9984 19.4642V21.0002H10V19.4642C10 18.8083 10.2878 18.1854 10.7873 17.7602ZM19.1741 18.9786C17.0559 17.1756 13.9425 17.1756 11.8243 18.9786C11.6984 19.0859 11.6197 19.2372 11.6032 19.4002H19.3952C19.3788 19.2372 19.3001 19.0859 19.1741 18.9786Z" fill="#33363D"/>
</svg>
