<svg width="24" height="24" viewBox="0 0 24 24" fill="none" xmlns="http://www.w3.org/2000/svg">
<path fill-rule="evenodd" clip-rule="evenodd" d="M3.8 5.60017L20.1992 5.6C20.3097 5.6 20.3992 5.68954 20.3992 5.8V18.2002C20.3992 18.3106 20.3097 18.4002 20.1992 18.4002H3.8C3.68954 18.4002 3.6 18.3106 3.6 18.2002V5.80017C3.6 5.68972 3.68954 5.60018 3.8 5.60017ZM20.1992 4L3.79998 4.00017C2.80588 4.00018 2 4.80607 2 5.80017V18.2002C2 19.1943 2.80589 20.0002 3.8 20.0002H20.1992C21.1933 20.0002 21.9992 19.1943 21.9992 18.2002V5.8C21.9992 4.80588 21.1933 3.99999 20.1992 4ZM15.2 13.2002C14.7582 13.2002 14.4 13.5584 14.4 14.0002C14.4 14.442 14.7582 14.8002 15.2 14.8002H18.2C18.6418 14.8002 19 14.442 19 14.0002C19 13.5584 18.6418 13.2002 18.2 13.2002H15.2ZM6.4 13.4C7.1732 13.4 7.8 12.7732 7.8 12C7.8 11.2268 7.1732 10.6 6.4 10.6C5.6268 10.6 5 11.2268 5 12C5 12.7732 5.6268 13.4 6.4 13.4ZM12.8 12C12.8 12.7732 12.1732 13.4 11.4 13.4C10.6268 13.4 10 12.7732 10 12C10 11.2268 10.6268 10.6 11.4 10.6C12.1732 10.6 12.8 11.2268 12.8 12Z" fill="#33363D"/>
</svg>
