<svg width="24" height="24" viewBox="0 0 24 24" fill="none" xmlns="http://www.w3.org/2000/svg">
<path fill-rule="evenodd" clip-rule="evenodd" d="M20.1999 3C20.4121 2.99999 20.6156 3.08428 20.7656 3.23431C20.9157 3.38434 21 3.58782 21 3.8V20.2028C21 20.6446 20.6418 21.0028 20.2 21.0028H12.8007C12.3589 21.0028 12.0007 20.6446 12.0007 20.2028C12.0007 19.761 12.3589 19.4028 12.8007 19.4028H19.4V4.60002L12.8008 4.6002C12.3589 4.60021 12.0007 4.24204 12.0007 3.80022C12.0007 3.35839 12.3589 3.00021 12.8007 3.0002L20.1999 3ZM15.5552 12.5769C15.7121 12.426 15.8007 12.2178 15.8007 12.0002C15.8007 11.7826 15.7121 11.5744 15.5552 11.4235L10.3552 6.42353C10.0367 6.11729 9.5303 6.12722 9.22407 6.44571C8.91783 6.76419 8.92776 7.27063 9.24625 7.57686L13.0145 11.2002H3.40229C2.96047 11.2002 2.60229 11.5584 2.60229 12.0002C2.60229 12.442 2.96047 12.8002 3.40229 12.8002H13.0145L9.24624 16.4235C8.92776 16.7298 8.91783 17.2362 9.22407 17.5547C9.5303 17.8732 10.0367 17.8831 10.3552 17.5769L15.5552 12.5769Z" fill="#33363D"/>
</svg>
