<svg width="24" height="24" viewBox="0 0 24 24" fill="none" xmlns="http://www.w3.org/2000/svg">
<path fill-rule="evenodd" clip-rule="evenodd" d="M3.80002 3C3.58784 2.99999 3.38436 3.08428 3.23432 3.23431C3.08429 3.38434 3 3.58782 3 3.8V20.2028C3 20.6446 3.35817 21.0028 3.8 21.0028H11.1992C11.641 21.0028 11.9992 20.6446 11.9992 20.2028C11.9992 19.761 11.641 19.4028 11.1992 19.4028H4.6V4.60002L11.1992 4.6002C11.641 4.60021 11.9992 4.24204 11.9992 3.80022C11.9992 3.35839 11.6411 3.00021 11.1992 3.0002L3.80002 3ZM21.1529 12.5769C21.3098 12.426 21.3984 12.2178 21.3984 12.0002C21.3984 11.7826 21.3098 11.5744 21.1529 11.4235L15.9529 6.42353C15.6344 6.11729 15.128 6.12722 14.8218 6.44571C14.5155 6.76419 14.5255 7.27063 14.844 7.57686L18.6122 11.2002H9C8.55817 11.2002 8.2 11.5584 8.2 12.0002C8.2 12.442 8.55817 12.8002 9 12.8002H18.6122L14.844 16.4235C14.5255 16.7298 14.5155 17.2362 14.8218 17.5547C15.128 17.8732 15.6344 17.8831 15.9529 17.5769L21.1529 12.5769Z" fill="#33363D"/>
</svg>
