<svg width="24" height="24" viewBox="0 0 24 24" fill="none" xmlns="http://www.w3.org/2000/svg">
<path fill-rule="evenodd" clip-rule="evenodd" d="M7.19922 6.8C7.19922 4.70132 8.90054 3 10.9992 3C13.0979 3 14.7992 4.70132 14.7992 6.8C14.7992 8.89868 13.0979 10.6 10.9992 10.6C8.90054 10.6 7.19922 8.89868 7.19922 6.8ZM10.9992 4.6C9.78419 4.6 8.79922 5.58498 8.79922 6.8C8.79922 8.01502 9.78419 9 10.9992 9C12.2142 9 13.1992 8.01502 13.1992 6.8C13.1992 5.58498 12.2142 4.6 10.9992 4.6ZM20.6355 13.5386C21.0008 13.7872 21.0954 14.2848 20.8468 14.6501L16.7635 20.6501C16.6294 20.8471 16.4145 20.9741 16.1772 20.9964C15.94 21.0188 15.7051 20.9343 15.5365 20.7658L13.0352 18.2658C12.7227 17.9535 12.7226 17.4469 13.0349 17.1344C13.3473 16.8219 13.8538 16.8218 14.1663 17.1341L15.9843 18.9512L19.524 13.7499C19.7726 13.3846 20.2703 13.29 20.6355 13.5386ZM11.2889 18.3198C11.3989 18.7198 11.6089 19.0998 11.9089 19.3998L12.4289 19.9198H4.42891C3.98891 19.9198 3.62891 19.5598 3.62891 19.1198C3.62891 14.8198 7.12891 11.3198 11.4289 11.3198C13.8089 11.3198 15.9389 12.3898 17.3689 14.0798L16.4189 15.4798C15.2889 13.9298 13.4789 12.9198 11.4289 12.9198C8.27891 12.9198 5.66891 15.2798 5.27891 18.3198H11.2889Z" fill="#33363D"/>
</svg>
