<svg width="24" height="24" viewBox="0 0 24 24" fill="none" xmlns="http://www.w3.org/2000/svg">
<path fill-rule="evenodd" clip-rule="evenodd" d="M4.6 4.80002C4.59999 4.68955 4.68954 4.6 4.8 4.6H11.5991C12.041 4.6 12.3991 4.24183 12.3991 3.8C12.3991 3.35817 12.041 3 11.5991 3H4.8C3.80582 3 2.99991 3.80599 3 4.80017L3.00137 19.2004C3.00147 20.1944 3.80732 21.0002 4.80137 21.0002H19.1991C20.1932 21.0002 20.9991 20.1943 20.9991 19.2002V12.4002C20.9991 11.9584 20.641 11.6002 20.1991 11.6002C19.7573 11.6002 19.3991 11.9584 19.3991 12.4002V19.2002C19.3991 19.3107 19.3096 19.4002 19.1991 19.4002H4.80137C4.69092 19.4002 4.60138 19.3107 4.60137 19.2002L4.6 4.80002ZM13.9992 3.8C13.9992 4.24183 14.3574 4.6 14.7992 4.6H18.2678L10.4335 12.4343C10.1211 12.7467 10.1211 13.2533 10.4335 13.5657C10.746 13.8781 11.2525 13.8781 11.5649 13.5657L19.3992 5.73137V9.2002C19.3992 9.64202 19.7574 10.0002 20.1992 10.0002C20.641 10.0002 20.9992 9.64202 20.9992 9.2002V3.8C20.9992 3.35817 20.641 3 20.1992 3H14.7992C14.3574 3 13.9992 3.35817 13.9992 3.8Z" fill="#33363D"/>
</svg>
