<svg width="24" height="24" viewBox="0 0 24 24" fill="none" xmlns="http://www.w3.org/2000/svg">
<path fill-rule="evenodd" clip-rule="evenodd" d="M5.8 2C4.80589 2 4 2.80589 4 3.8V20.2002C4 21.1943 4.80589 22.0002 5.8 22.0002H18.1992C19.1933 22.0002 19.9992 21.1943 19.9992 20.2002V19H20C20.5523 19 21 18.5523 21 18V12C21 11.4477 20.5523 11 20 11H19.9992V8.5002C19.9992 8.28805 19.915 8.08458 19.765 7.93456L14.0657 2.23436C13.9157 2.0843 13.7122 2 13.5 2H5.8ZM18.3992 11V9.3002H14.5C13.5059 9.3002 12.7 8.49431 12.7 7.5002V3.6H5.8C5.68954 3.6 5.6 3.68954 5.6 3.8V20.2002C5.6 20.3107 5.68954 20.4002 5.8 20.4002H18.1992C18.3097 20.4002 18.3992 20.3107 18.3992 20.2002V19H8C7.44772 19 7 18.5523 7 18V12C7 11.4477 7.44772 11 8 11H18.3992ZM17.2681 7.7002L14.3 4.73161V7.5002C14.3 7.61065 14.3895 7.7002 14.5 7.7002H17.2681Z" fill="#33363D"/>
<path fill-rule="evenodd" clip-rule="evenodd" d="M9 13V17.0044H9.71903V15.6493H10.4934C11.417 15.6493 11.9148 15.0962 11.9148 14.3274C11.9148 13.5586 11.4226 13 10.5044 13H9ZM10.3938 15.0575H9.71903V13.6029H10.3938C10.9358 13.6029 11.1792 13.896 11.1792 14.3274C11.1792 14.7533 10.9358 15.0575 10.3938 15.0575ZM13.8562 17.0044H12.4956V13H13.8783C15.073 13 15.7976 13.7522 15.7976 14.9967C15.7976 16.2467 15.073 17.0044 13.8562 17.0044ZM13.2146 16.3794H13.8175C14.6527 16.3794 15.0786 15.9204 15.0786 14.9967C15.0786 14.0785 14.6527 13.625 13.8396 13.625H13.2146V16.3794ZM16.4337 17.0044V13H19.0001V13.6029H17.1527V14.698H18.8231V15.3009H17.1527V17.0044H16.4337Z" fill="white"/>
</svg>
