<svg width="24" height="24" viewBox="0 0 24 24" fill="none" xmlns="http://www.w3.org/2000/svg">
<path fill-rule="evenodd" clip-rule="evenodd" d="M12 3.6C7.36081 3.6 3.6 7.36081 3.6 12C3.6 16.6392 7.36081 20.4 12 20.4C16.6392 20.4 20.4 16.6392 20.4 12C20.4 7.36081 16.6392 3.6 12 3.6ZM2 12C2 6.47715 6.47715 2 12 2C17.5228 2 22 6.47715 22 12C22 17.5228 17.5228 22 12 22C6.47715 22 2 17.5228 2 12Z" fill="#33363D"/>
<path fill-rule="evenodd" clip-rule="evenodd" d="M10.7353 8.88535C10.4794 9.22084 10.3992 9.61981 10.3992 9.80019H8.79922C8.79922 9.31391 8.969 8.56289 9.46312 7.91504C9.98744 7.22759 10.8464 6.7002 12.0992 6.7002C13.3215 6.7002 14.1879 7.17315 14.684 7.89863C15.1498 8.57982 15.2244 9.39323 15.0757 9.9928C14.831 10.9792 14.2362 11.7339 13.8311 12.0964C13.7182 12.1974 13.6209 12.2832 13.5362 12.3579C13.2247 12.6325 13.0861 12.7548 12.9821 12.9203C12.8896 13.0673 12.7977 13.3081 12.7977 14.0002H11.1977C11.1977 13.1923 11.2985 12.5921 11.6275 12.0688C11.867 11.6877 12.2251 11.3756 12.5602 11.0834C12.6296 11.0229 12.698 10.9632 12.7642 10.904C12.9816 10.7094 13.3706 10.2211 13.5227 9.60759C13.5725 9.40716 13.5471 9.07057 13.3633 8.80176C13.2097 8.57724 12.877 8.3002 12.0992 8.3002C11.352 8.3002 10.961 8.58946 10.7353 8.88535Z" fill="#33363D"/>
<path d="M10.9992 16.0002C10.9992 15.4479 11.4469 15.0002 11.9992 15.0002C12.5515 15.0002 12.9992 15.4479 12.9992 16.0002C12.9992 16.5525 12.5515 17.0002 11.9992 17.0002C11.4469 17.0002 10.9992 16.5525 10.9992 16.0002Z" fill="#33363D"/>
</svg>
