<svg width="24" height="24" viewBox="0 0 24 24" fill="none" xmlns="http://www.w3.org/2000/svg">
<path fill-rule="evenodd" clip-rule="evenodd" d="M4.19766 12.0001C4.19766 7.69649 7.70723 4.2001 12.046 4.2001C14.9928 4.2001 17.5597 5.81393 18.9017 8.2002H15.8C15.3582 8.2002 15 8.55837 15 9.0002C15 9.44202 15.3582 9.8002 15.8 9.8002H20.8C21.2418 9.8002 21.6 9.44202 21.6 9.0002V4.0002C21.6 3.55837 21.2418 3.2002 20.8 3.2002C20.3582 3.2002 20 3.55837 20 4.0002V6.92494C18.3195 4.32325 15.3846 2.6001 12.046 2.6001C6.83203 2.6001 2.59766 6.8044 2.59766 12.0001C2.59766 17.1958 6.83203 21.4001 12.046 21.4001C16.7796 21.4001 20.7039 17.9361 21.3887 13.4098C21.4547 12.9729 21.1542 12.5652 20.7173 12.4991C20.2805 12.433 19.8727 12.7336 19.8067 13.1704C19.2395 16.9195 15.9831 19.8001 12.046 19.8001C7.70723 19.8001 4.19766 16.3037 4.19766 12.0001Z" fill="#33363D"/>
</svg>
