<svg width="24" height="24" viewBox="0 0 24 24" fill="none" xmlns="http://www.w3.org/2000/svg">
<path fill-rule="evenodd" clip-rule="evenodd" d="M15.7619 4.4874C14.6302 3.9196 13.3524 3.6 12 3.6C7.36081 3.6 3.6 7.36081 3.6 12C3.6 16.6392 7.36081 20.4 12 20.4C16.6392 20.4 20.4 16.6392 20.4 12C20.4 10.4817 19.9972 9.0575 19.2926 7.82841L20.2773 6.38701C21.3646 7.9873 22 9.91945 22 12C22 17.5228 17.5228 22 12 22C6.47715 22 2 17.5228 2 12C2 6.47715 6.47715 2 12 2C13.6874 2 15.2772 2.41794 16.6715 3.15595L15.7619 4.4874ZM17.118 5.3387C17.5468 5.66866 17.9429 6.03909 18.3005 6.44428L19.2269 5.08823C18.8549 4.69944 18.4519 4.34061 18.0218 4.01572L17.118 5.3387Z" fill="#33363D"/>
<path fill-rule="evenodd" clip-rule="evenodd" d="M19.4505 3.33922C19.8153 3.58845 19.909 4.08624 19.6598 4.45106L12.8281 14.4511C12.6938 14.6476 12.4789 14.7742 12.2419 14.7963C12.0049 14.8185 11.7703 14.7339 11.6019 14.5656L7.43364 10.3989C7.12116 10.0866 7.12106 9.58002 7.43342 9.26754C7.74578 8.95506 8.25231 8.95496 8.56479 9.26732L12.051 12.7522L18.3387 3.5485C18.5879 3.18368 19.0857 3.08998 19.4505 3.33922Z" fill="#256EF4"/>
</svg>
