<svg width="24" height="24" viewBox="0 0 24 24" fill="none" xmlns="http://www.w3.org/2000/svg">
<path d="M2 12C2 17.5228 6.47715 22 12 22C17.5228 22 22 17.5228 22 12C22 6.47715 17.5228 2 12 2C6.47715 2 2 6.47715 2 12Z" fill="#DE3412"/>
<path fill-rule="evenodd" clip-rule="evenodd" d="M9.5649 8.43451C9.25248 8.12209 8.74595 8.12209 8.43353 8.43451C8.12111 8.74693 8.12111 9.25346 8.43353 9.56588L10.8686 12.001L8.4351 14.4345C8.12268 14.7469 8.12268 15.2535 8.4351 15.5659C8.74752 15.8783 9.25405 15.8783 9.56647 15.5659L12 13.1323L14.4335 15.5659C14.746 15.8783 15.2525 15.8783 15.5649 15.5659C15.8773 15.2535 15.8773 14.7469 15.5649 14.4345L13.1314 12.001L15.5665 9.56588C15.8789 9.25346 15.8789 8.74693 15.5665 8.43451C15.254 8.12209 14.7475 8.12209 14.4351 8.43451L12 10.8696L9.5649 8.43451Z" fill="white"/>
</svg>
