<svg width="24" height="24" viewBox="0 0 24 24" fill="none" xmlns="http://www.w3.org/2000/svg">
<path fill-rule="evenodd" clip-rule="evenodd" d="M20.4 11.9995C20.4 16.6387 16.6391 20.3995 12 20.3995C7.36081 20.3995 3.6 16.6387 3.6 11.9995C3.6 7.36032 7.36081 3.59951 12 3.59951C16.6391 3.59951 20.4 7.36032 20.4 11.9995ZM12 21.9995C17.5228 21.9995 22 17.5223 22 11.9995C22 6.47666 17.5228 1.99951 12 1.99951C6.47715 1.99951 2 6.47666 2 11.9995C2 17.5223 6.47715 21.9995 12 21.9995ZM12.7992 7.49971C12.7992 7.05788 12.441 6.69971 11.9992 6.69971C11.5574 6.69971 11.1992 7.05788 11.1992 7.49971V12C11.1992 12.4418 11.5574 12.8 11.9992 12.8H16.4995C16.9413 12.8 17.2995 12.4418 17.2995 12C17.2995 11.5582 16.9413 11.2 16.4995 11.2H12.7992V7.49971Z" fill="#33363D"/>
</svg>
