<svg width="24" height="24" viewBox="0 0 24 24" fill="none" xmlns="http://www.w3.org/2000/svg">
<path fill-rule="evenodd" clip-rule="evenodd" d="M2 12.0005C2 6.47769 6.47715 2.00049 12 2.00049C17.5228 2.00049 22 6.47768 22 12.0005C22 12.942 21.8697 13.8543 21.6256 14.7199C21.5463 15.0009 21.3203 15.2164 21.0358 15.2822C20.7514 15.3479 20.4537 15.2535 20.2591 15.0358C19.5804 14.2764 18.5959 13.8002 17.4992 13.8002C15.4558 13.8002 13.7992 15.4568 13.7992 17.5002C13.7992 18.5968 14.2753 19.5812 15.0346 20.2599C15.2523 20.4545 15.3467 20.7522 15.2809 21.0366C15.2151 21.3211 14.9995 21.5471 14.7185 21.6263C13.8532 21.8702 12.9412 22.0005 12 22.0005C6.47715 22.0005 2 17.5233 2 12.0005ZM12 3.60049C7.36081 3.60049 3.6 7.36134 3.6 12.0005C3.6 16.6397 7.36081 20.4005 12 20.4005C12.3465 20.4005 12.6879 20.3796 13.0229 20.3389C12.5016 19.5184 12.1992 18.5444 12.1992 17.5002C12.1992 14.5731 14.5721 12.2002 17.4992 12.2002C18.5436 12.2002 19.5178 12.5027 20.3383 13.0242C20.379 12.6889 20.4 12.3472 20.4 12.0005C20.4 7.36134 16.6391 3.60049 12 3.60049ZM12.0523 6.97686C12.0523 7.6396 11.5151 8.17686 10.8523 8.17686C10.1896 8.17686 9.65234 7.6396 9.65234 6.97686C9.65234 6.31411 10.1896 5.77686 10.8523 5.77686C11.5151 5.77686 12.0523 6.31411 12.0523 6.97686ZM15.8758 9.52305C16.5385 9.52305 17.0758 8.98579 17.0758 8.32305C17.0758 7.66031 16.5385 7.12305 15.8758 7.12305C15.213 7.12305 14.6758 7.66031 14.6758 8.32305C14.6758 8.98579 15.213 9.52305 15.8758 9.52305ZM9.72422 15.6771C9.72422 16.3398 9.18696 16.8771 8.52422 16.8771C7.86148 16.8771 7.32422 16.3398 7.32422 15.6771C7.32422 15.0143 7.86148 14.4771 8.52422 14.4771C9.18696 14.4771 9.72422 15.0143 9.72422 15.6771ZM8.37656 10.655C8.37656 9.99224 7.8393 9.45498 7.17656 9.45498C6.51382 9.45498 5.97656 9.99224 5.97656 10.655C5.97656 11.3177 6.51382 11.855 7.17656 11.855C7.8393 11.855 8.37656 11.3177 8.37656 10.655Z" fill="#33363D"/>
</svg>
