<svg width="24" height="24" viewBox="0 0 24 24" fill="none" xmlns="http://www.w3.org/2000/svg">
<path fill-rule="evenodd" clip-rule="evenodd" d="M4.59927 4.60018V7.00018C4.59927 7.44201 4.2411 7.80018 3.79927 7.80018C3.35744 7.80018 2.99927 7.44201 2.99927 7.00018V4.30018C2.99927 3.58221 3.5813 3.00018 4.29927 3.00018H19.699C20.4169 3.00018 20.999 3.58221 20.999 4.30018V7.00018C20.999 7.44201 20.6408 7.80018 20.199 7.80018C19.7571 7.80018 19.399 7.44201 19.399 7.00018V4.60018H12.7994L12.8003 19.3999H16.1985C16.6403 19.3999 16.9985 19.7581 16.9985 20.1999C16.9985 20.6417 16.6403 20.9999 16.1985 20.9999H7.79849C7.35666 20.9999 6.99849 20.6417 6.99849 20.1999C6.99849 19.7581 7.35666 19.3999 7.79849 19.3999H11.2003L11.1994 4.60018H4.59927Z" fill="#33363D"/>
</svg>
