<svg width="24" height="24" viewBox="0 0 24 24" fill="none" xmlns="http://www.w3.org/2000/svg">
<path d="M4.8 3C3.80589 3 3 3.80589 3 4.8V6.60002C3 7.04185 3.35817 7.40002 3.8 7.40002C4.24183 7.40002 4.6 7.04185 4.6 6.60002V4.8C4.6 4.68954 4.68954 4.6 4.8 4.6H6.5999C7.04173 4.6 7.3999 4.24183 7.3999 3.8C7.3999 3.35817 7.04173 3 6.5999 3H4.8Z" fill="#33363D"/>
<path d="M10.1997 3C9.75788 3 9.39971 3.35817 9.39971 3.8C9.39971 4.24183 9.75788 4.6 10.1997 4.6H13.7995C14.2413 4.6 14.5995 4.24183 14.5995 3.8C14.5995 3.35817 14.2413 3 13.7995 3H10.1997Z" fill="#33363D"/>
<path fill-rule="evenodd" clip-rule="evenodd" d="M17.3993 3C16.9575 3 16.5993 3.35817 16.5993 3.8C16.5993 4.24183 16.9575 4.6 17.3993 4.6H19.1992C19.3097 4.6 19.3992 4.68954 19.3992 4.8V5.70021L19.3934 5.7002C11.8303 5.70009 5.69922 11.8311 5.69922 19.3941C5.69922 19.3962 5.69922 19.3982 5.69923 19.4002H4.8C4.68954 19.4002 4.6 19.3107 4.6 19.2002V17.4002C4.6 16.9583 4.24183 16.6002 3.8 16.6002C3.35817 16.6002 3 16.9583 3 17.4002V19.2002C3 20.1943 3.80589 21.0002 4.8 21.0002H6.5999C6.7023 21.0002 6.8002 20.981 6.89019 20.9459C7.02254 20.9812 7.16162 21 7.30509 21H10.1824C10.1882 21.0001 10.1939 21.0002 10.1997 21.0002H13.7995C13.8053 21.0002 13.8111 21.0001 13.8168 21H17.382C17.3878 21.0001 17.3935 21.0002 17.3993 21.0002H19.1992C20.1467 21.0002 20.9233 20.2681 20.994 19.3387C20.9974 19.293 20.9992 19.2468 20.9992 19.2002L20.9992 7.30607C20.9992 7.16231 21 7 21 7C21 7 20.9992 6.70245 20.9992 6.60003V4.8C20.9992 3.80589 20.1933 3 19.1992 3H17.3993ZM19.3992 7.30607L19.3992 7.3045L19.3975 7.30192L19.3954 7.30033L19.3933 7.3002C12.714 7.3001 7.29922 12.7148 7.29922 19.3941L7.29929 19.3957L7.30094 19.3983L7.30305 19.3999L7.30509 19.4H19.1992C19.3097 19.4 19.3992 19.3105 19.3992 19.2V7.30607Z" fill="#33363D"/>
<path d="M4.6 10.2001C4.6 9.75825 4.24183 9.40007 3.8 9.40007C3.35817 9.40007 3 9.75825 3 10.2001V13.8001C3 14.2419 3.35817 14.6001 3.8 14.6001C4.24183 14.6001 4.6 14.2419 4.6 13.8001V10.2001Z" fill="#33363D"/>
</svg>
