<svg width="24" height="24" viewBox="0 0 24 24" fill="none" xmlns="http://www.w3.org/2000/svg">
<path fill-rule="evenodd" clip-rule="evenodd" d="M14.4004 7C14.8422 7 15.2004 7.35817 15.2004 7.8V8.79941H16.2C16.6418 8.79941 17 9.15759 17 9.59941C17 10.0412 16.6418 10.3994 16.2 10.3994H15.2004V13.6002H16.2C16.6418 13.6002 17 13.9584 17 14.4002C17 14.842 16.6418 15.2002 16.2 15.2002H15.2004V16.2C15.2004 16.6418 14.8422 17 14.4004 17C13.9586 17 13.6004 16.6418 13.6004 16.2V15.2002L10.3996 15.2002V16.2C10.3996 16.6418 10.0414 17 9.59961 17C9.15778 17 8.79961 16.6418 8.79961 16.2V15.2002H7.8C7.35817 15.2002 7 14.842 7 14.4002C7 13.9584 7.35817 13.6002 7.8 13.6002H8.79961L8.79961 10.3994H7.8C7.35817 10.3994 7 10.0412 7 9.59941C7 9.15759 7.35817 8.79941 7.8 8.79941H8.79961V7.8C8.79961 7.35817 9.15778 7 9.59961 7C10.0414 7 10.3996 7.35817 10.3996 7.8V8.79941H13.6004V7.8C13.6004 7.35817 13.9586 7 14.4004 7ZM13.6004 10.3994H10.3996L10.3996 13.6002H13.6004V10.3994Z" fill="#33363D"/>
<path fill-rule="evenodd" clip-rule="evenodd" d="M3 4.8C3 3.80589 3.80589 3 4.8 3H19.2C20.1941 3 21 3.80589 21 4.8V19.2C21 20.1941 20.1941 21 19.2 21H4.8C3.80589 21 3 20.1941 3 19.2V4.8ZM4.8 4.6C4.68954 4.6 4.6 4.68954 4.6 4.8V19.2C4.6 19.3105 4.68954 19.4 4.8 19.4H19.2C19.3105 19.4 19.4 19.3105 19.4 19.2V4.8C19.4 4.68954 19.3105 4.6 19.2 4.6H4.8Z" fill="#33363D"/>
</svg>
