<svg width="24" height="24" viewBox="0 0 24 24" fill="none" xmlns="http://www.w3.org/2000/svg">
<path d="M7.79922 8.95145V7.8002H11.1994L11.1999 16.2002H9.43781C8.99598 16.2002 8.63781 16.5584 8.63781 17.0002C8.63781 17.442 8.99598 17.8002 9.43781 17.8002H14.5599C15.0017 17.8002 15.3599 17.442 15.3599 17.0002C15.3599 16.5584 15.0017 16.2002 14.5599 16.2002H12.7999L12.7994 7.8002H16.1992V8.95145C16.1992 9.39328 16.5574 9.75145 16.9992 9.75145C17.441 9.75145 17.7992 9.39328 17.7992 8.95145V7.5002C17.7992 6.78222 17.2172 6.2002 16.4992 6.2002H7.49922C6.78125 6.2002 6.19922 6.78222 6.19922 7.5002V8.95145C6.19922 9.39328 6.55739 9.75145 6.99922 9.75145C7.44105 9.75145 7.79922 9.39328 7.79922 8.95145Z" fill="#33363D"/>
<path fill-rule="evenodd" clip-rule="evenodd" d="M4.8 3C3.80589 3 3 3.80589 3 4.8V19.2C3 20.1941 3.80589 21 4.8 21H19.2C20.1941 21 21 20.1941 21 19.2V4.8C21 3.80589 20.1941 3 19.2 3H4.8ZM4.6 4.8C4.6 4.68954 4.68954 4.6 4.8 4.6H19.2C19.3105 4.6 19.4 4.68954 19.4 4.8V19.2C19.4 19.3105 19.3105 19.4 19.2 19.4H4.8C4.68954 19.4 4.6 19.3105 4.6 19.2V4.8Z" fill="#33363D"/>
</svg>
