<svg width="24" height="24" viewBox="0 0 24 24" fill="none" xmlns="http://www.w3.org/2000/svg">
<path fill-rule="evenodd" clip-rule="evenodd" d="M12.5759 3.24551C12.4251 3.08865 12.2168 3 11.9992 3C11.7816 3 11.5734 3.08865 11.4226 3.24551L6.42255 8.44551C6.11632 8.764 6.12625 9.27043 6.44473 9.57667C6.76322 9.8829 7.26965 9.87297 7.57589 9.55449L11.1992 5.78622V15.5C11.1992 15.9418 11.5574 16.3 11.9992 16.3C12.441 16.3 12.7992 15.9418 12.7992 15.5V5.78622L16.4226 9.55449C16.7288 9.87297 17.2352 9.8829 17.5537 9.57667C17.8722 9.27043 17.8821 8.764 17.5759 8.44551L12.5759 3.24551ZM3.60078 16.0004C3.60089 15.5586 3.2428 15.2003 2.80098 15.2002C2.35915 15.2001 2.00089 15.5582 2.00078 16L2 19.2C1.99995 19.4122 2.08421 19.6157 2.23425 19.7658C2.38428 19.9159 2.58779 20.0002 2.8 20.0002H21.1992C21.641 20.0002 21.9992 19.642 21.9992 19.2002V16.0002C21.9992 15.5584 21.641 15.2002 21.1992 15.2002C20.7574 15.2002 20.3992 15.5584 20.3992 16.0002V18.4002H3.6002L3.60078 16.0004Z" fill="#33363D"/>
</svg>
