<svg width="24" height="24" viewBox="0 0 24 24" fill="none" xmlns="http://www.w3.org/2000/svg">
<path fill-rule="evenodd" clip-rule="evenodd" d="M3.8 3C3.35817 3 3 3.35817 3 3.8V10.2C3 10.6418 3.35817 11 3.8 11H10.2C10.6418 11 11 10.6418 11 10.2V3.8C11 3.35817 10.6418 3 10.2 3H3.8ZM4.6 9.4V4.6H9.4V9.4H4.6ZM13.8 3C13.3582 3 13 3.35817 13 3.8V10.2C13 10.6418 13.3582 11 13.8 11H20.2C20.6418 11 21 10.6418 21 10.2V3.8C21 3.35817 20.6418 3 20.2 3H13.8ZM14.6 9.4V4.6H19.4V9.4H14.6ZM13 13.8C13 13.3582 13.3582 13 13.8 13H20.2C20.6418 13 21 13.3582 21 13.8V20.2C21 20.6418 20.6418 21 20.2 21H13.8C13.3582 21 13 20.6418 13 20.2V13.8ZM14.6 14.6V19.4H19.4V14.6H14.6ZM3.8 13C3.35817 13 3 13.3582 3 13.8V20.2C3 20.6418 3.35817 21 3.8 21H10.2C10.6418 21 11 20.6418 11 20.2V13.8C11 13.3582 10.6418 13 10.2 13H3.8ZM4.6 19.4V14.6H9.4V19.4H4.6Z" fill="#33363D"/>
</svg>
