<svg width="24" height="24" viewBox="0 0 24 24" fill="none" xmlns="http://www.w3.org/2000/svg">
<path fill-rule="evenodd" clip-rule="evenodd" d="M4.13137 3C3.81895 2.68758 3.31242 2.68758 3 3C2.68758 3.31242 2.68758 3.81895 3 4.13137L6.06788 7.19915C6.06767 7.19927 6.06746 7.19939 6.06725 7.1995L7.25327 8.38548C7.25348 8.38537 7.2537 8.38526 7.25392 8.38516L8.80688 9.93806C8.80675 9.93826 8.80662 9.93846 8.80649 9.93866L9.98404 11.1162C9.98414 11.1159 9.98424 11.1157 9.98434 11.1155L12.884 14.015C12.8838 14.0151 12.8835 14.0152 12.8833 14.0153L14.0609 15.1929C14.0611 15.1927 14.0613 15.1926 14.0615 15.1925L15.1892 16.3202C15.189 16.3203 15.1887 16.3203 15.1885 16.3204L16.4702 17.6021C16.4704 17.602 16.4707 17.602 16.4709 17.6019L19.8692 21.0001C20.1816 21.3125 20.6882 21.3125 21.0006 21.0001C21.313 20.6876 21.313 20.1811 21.0006 19.8687L4.13137 3ZM2.02522 11.9047C2.46806 10.1831 3.72421 8.69838 5.361 7.62462L6.52105 8.78464L6.46851 8.81662C5.02243 9.70343 4.02468 10.8674 3.63697 12.087C4.19817 13.5857 6.61193 16.7002 12 16.7002C12.8202 16.7002 13.5707 16.6353 14.2558 16.5191L15.6013 17.8646C14.5436 18.1403 13.3457 18.3002 12 18.3002C5.62149 18.3002 2.62791 14.3893 2.03147 12.3262C1.99175 12.1888 1.98959 12.0433 2.02522 11.9047ZM8.19922 12.0002C8.19922 11.541 8.28066 11.1009 8.42988 10.6934L9.80011 12.0636C9.83307 13.2283 10.7712 14.1664 11.9359 14.1993L13.3061 15.5695C12.8986 15.7187 12.4584 15.8002 11.9992 15.8002C9.90054 15.8002 8.19922 14.0989 8.19922 12.0002ZM15.5687 13.3066L14.1983 11.9362C14.1651 10.772 13.2273 9.8343 12.0631 9.80111L10.6927 8.43076C11.1001 8.2816 11.5402 8.2002 11.9992 8.2002C14.0979 8.2002 15.7992 9.90151 15.7992 12.0002C15.7992 12.4592 15.7178 12.8992 15.5687 13.3066ZM12 7.3002C11.2435 7.3002 10.5005 7.37923 9.78763 7.52571L8.46817 6.20629C9.58352 5.87997 10.7781 5.7002 12 5.7002C16.6464 5.7002 20.8266 8.32809 21.9609 11.8594C22.0058 11.9992 22.0114 12.1486 21.977 12.2914C21.6557 13.6251 20.6226 15.2623 18.7529 16.4907L17.5931 15.3309C19.2093 14.3614 20.0635 13.0713 20.3616 12.1305C19.3862 9.52777 16.0411 7.3002 12 7.3002Z" fill="#33363D"/>
</svg>
