<svg width="24" height="24" viewBox="0 0 24 24" fill="none" xmlns="http://www.w3.org/2000/svg">
<path fill-rule="evenodd" clip-rule="evenodd" d="M3.63629 12.0843C4.03609 10.8283 5.08502 9.63166 6.59666 8.73858C8.10015 7.85031 10.0027 7.3002 11.9985 7.3002C16.0279 7.3002 19.3773 9.51934 20.3566 12.1209C20.359 12.1272 20.3594 12.1313 20.3594 12.1328L20.3594 12.133C19.8163 13.8467 17.4328 16.7002 11.9985 16.7002C6.62812 16.7002 4.20473 13.6043 3.63555 12.0869L3.63629 12.0843ZM11.9985 5.7002C9.71865 5.7002 7.53474 6.32599 5.7828 7.36103C4.03901 8.39127 2.66351 9.86534 2.11167 11.599C2.0057 11.9319 2.00656 12.2981 2.13461 12.6412C2.92028 14.7463 5.91647 18.3002 11.9985 18.3002C18.0562 18.3002 21.1104 15.0626 21.8852 12.6146C21.9975 12.26 21.9786 11.8883 21.854 11.5573C20.5835 8.18203 16.518 5.7002 11.9985 5.7002ZM9.79922 12.0002C9.79922 10.7852 10.7842 9.8002 11.9992 9.8002C13.2142 9.8002 14.1992 10.7852 14.1992 12.0002C14.1992 13.2152 13.2142 14.2002 11.9992 14.2002C10.7842 14.2002 9.79922 13.2152 9.79922 12.0002ZM11.9992 8.2002C9.90054 8.2002 8.19922 9.90151 8.19922 12.0002C8.19922 14.0989 9.90054 15.8002 11.9992 15.8002C14.0979 15.8002 15.7992 14.0989 15.7992 12.0002C15.7992 9.90151 14.0979 8.2002 11.9992 8.2002Z" fill="#33363D"/>
</svg>
