<svg width="20" height="15" viewBox="0 0 20 15" fill="none" xmlns="http://www.w3.org/2000/svg">
<path fill-rule="evenodd" clip-rule="evenodd" d="M17.8136 0.447581C18.6739 0.694355 19.3523 1.42016 19.5818 2.34194C20 4.01371 20 7.5 20 7.5C20 7.5 20 10.9875 19.5818 12.6581C19.3523 13.5798 18.6739 14.3056 17.8136 14.5524C16.2545 15 10 15 10 15C10 15 3.74659 15 2.18636 14.5524C1.32614 14.3056 0.647727 13.5798 0.418182 12.6581C0 10.9863 0 7.5 0 7.5C0 7.5 0 4.01371 0.418182 2.34194C0.647727 1.42016 1.32614 0.694355 2.18636 0.447581C3.74545 0 10 0 10 0C10 0 16.2545 0 17.8136 0.447581ZM13 7.5L8 10V5L13 7.5Z" fill="#33363D"/>
</svg>
